nanook_BOLD
<glyph name="exclam" format="1">
  <advance width="270"/>
  <unicode hex="0021"/>
  <outline>
    <contour>
      <point x="192" y="798" type="line"/>
      <point x="192" y="919" type="line"/>
      <point x="80" y="919" type="line"/>
      <point x="80" y="798" type="line"/>
      <point x="111" y="256" type="line"/>
      <point x="160" y="256" type="line"/>
    </contour>
    <contour>
      <point x="40" y="71" type="line"/>
      <point x="40" y="93" type="line"/>
      <point x="124" y="176" type="line"/>
      <point x="146" y="176" type="line"/>
      <point x="230" y="93" type="line"/>
      <point x="230" y="71" type="line"/>
      <point x="146" y="-13" type="line"/>
      <point x="124" y="-13" type="line"/>
    </contour>
  </outline>
</glyph>
<glyph name="quotedbl" format="1">
  <advance width="450"/>
  <unicode hex="0022"/>
  <outline>
    <contour>
      <point x="240" y="825" type="line"/>
      <point x="298" y="767"/>
      <point x="298" y="657"/>
      <point x="298" y="657" type="curve"/>
      <point x="347" y="657" type="line"/>
      <point x="347" y="657"/>
      <point x="347" y="762"/>
      <point x="410" y="825" type="curve"/>
      <point x="410" y="847" type="line"/>
      <point x="336" y="920" type="line"/>
      <point x="314" y="920" type="line"/>
      <point x="240" y="847" type="line"/>
    </contour>
    <contour>
      <point x="40" y="825" type="line"/>
      <point x="98" y="767"/>
      <point x="98" y="657"/>
      <point x="98" y="657" type="curve"/>
      <point x="147" y="657" type="line"/>
      <point x="147" y="657"/>
      <point x="147" y="762"/>
      <point x="210" y="825" type="curve"/>
      <point x="210" y="847" type="line"/>
      <point x="136" y="920" type="line"/>
      <point x="114" y="920" type="line"/>
      <point x="40" y="847" type="line"/>
    </contour>
  </outline>
</glyph>
<glyph name="dollar" format="1">
  <advance width="588"/>
  <unicode hex="0024"/>
  <outline>
    <contour>
      <point x="249" y="-71" type="line"/>
      <point x="310" y="-71" type="line"/>
      <point x="310" y="-12" type="line"/>
      <point x="484" y="-1"/>
      <point x="558" y="136"/>
      <point x="558" y="252" type="curve" smooth="yes"/>
      <point x="558" y="349"/>
      <point x="516" y="425"/>
      <point x="413" y="477" type="curve" smooth="yes"/>
      <point x="310" y="529" type="line"/>
      <point x="310" y="793" type="line"/>
      <point x="387" y="765"/>
      <point x="440" y="679"/>
      <point x="440" y="679" type="curve"/>
      <point x="505" y="679" type="line"/>
      <point x="505" y="920" type="line"/>
      <point x="440" y="920" type="line"/>
      <point x="404" y="883" type="line"/>
      <point x="404" y="883"/>
      <point x="365" y="909"/>
      <point x="310" y="921" type="curve"/>
      <point x="310" y="993" type="line"/>
      <point x="249" y="993" type="line"/>
      <point x="249" y="927" type="line"/>
      <point x="114" y="922"/>
      <point x="35" y="799"/>
      <point x="35" y="708" type="curve" smooth="yes"/>
      <point x="35" y="620"/>
      <point x="64" y="541"/>
      <point x="154" y="490" type="curve"/>
      <point x="249" y="441" type="line"/>
      <point x="249" y="117" type="line"/>
      <point x="136" y="138"/>
      <point x="83" y="245"/>
      <point x="93" y="312" type="curve"/>
      <point x="42" y="327" type="line"/>
      <point x="42" y="327"/>
      <point x="30" y="307"/>
      <point x="30" y="276" type="curve" smooth="yes"/>
      <point x="30" y="172"/>
      <point x="75" y="10"/>
      <point x="249" y="-10" type="curve"/>
    </contour>
    <contour>
      <point x="353" y="387" type="line" smooth="yes"/>
      <point x="426" y="349"/>
      <point x="445" y="305"/>
      <point x="445" y="247" type="curve" smooth="yes"/>
      <point x="445" y="189"/>
      <point x="398" y="124"/>
      <point x="310" y="115" type="curve"/>
      <point x="310" y="409" type="line"/>
    </contour>
    <contour>
      <point x="148" y="699" type="curve" smooth="yes"/>
      <point x="148" y="743"/>
      <point x="189" y="792"/>
      <point x="249" y="800" type="curve"/>
      <point x="249" y="560" type="line"/>
      <point x="172" y="604"/>
      <point x="148" y="635"/>
    </contour>
  </outline>
</glyph>
<glyph name="percent" format="1">
  <advance width="868"/>
  <unicode hex="0025"/>
  <outline>
    <contour>
      <point x="236" y="-107" type="line"/>
      <point x="292" y="-132" type="line"/>
      <point x="627" y="620" type="line"/>
      <point x="571" y="645" type="line"/>
    </contour>
    <contour>
      <point x="30" y="450" type="curve" smooth="yes"/>
      <point x="30" y="556"/>
      <point x="119" y="645"/>
      <point x="225" y="645" type="curve" smooth="yes"/>
      <point x="336" y="645"/>
      <point x="420" y="555"/>
      <point x="420" y="450" type="curve" smooth="yes"/>
      <point x="420" y="344"/>
      <point x="330" y="256"/>
      <point x="225" y="256" type="curve" smooth="yes"/>
      <point x="120" y="256"/>
      <point x="30" y="344"/>
    </contour>
    <contour>
      <point x="91" y="450" type="curve" smooth="yes"/>
      <point x="91" y="378"/>
      <point x="152" y="318"/>
      <point x="224" y="318" type="curve" smooth="yes"/>
      <point x="296" y="318"/>
      <point x="357" y="377"/>
      <point x="357" y="450" type="curve" smooth="yes"/>
      <point x="357" y="522"/>
      <point x="296" y="583"/>
      <point x="224" y="583" type="curve" smooth="yes"/>
      <point x="152" y="583"/>
      <point x="91" y="521"/>
    </contour>
    <contour>
      <point x="448" y="62" type="curve" smooth="yes"/>
      <point x="448" y="168"/>
      <point x="537" y="257"/>
      <point x="643" y="257" type="curve" smooth="yes"/>
      <point x="754" y="257"/>
      <point x="838" y="167"/>
      <point x="838" y="62" type="curve" smooth="yes"/>
      <point x="838" y="-44"/>
      <point x="748" y="-132"/>
      <point x="643" y="-132" type="curve" smooth="yes"/>
      <point x="538" y="-132"/>
      <point x="448" y="-44"/>
    </contour>
    <contour>
      <point x="509" y="62" type="curve" smooth="yes"/>
      <point x="509" y="-10"/>
      <point x="570" y="-70"/>
      <point x="642" y="-70" type="curve" smooth="yes"/>
      <point x="714" y="-70"/>
      <point x="775" y="-11"/>
      <point x="775" y="62" type="curve" smooth="yes"/>
      <point x="775" y="134"/>
      <point x="714" y="195"/>
      <point x="642" y="195" type="curve" smooth="yes"/>
      <point x="570" y="195"/>
      <point x="509" y="133"/>
    </contour>
  </outline>
</glyph>
<glyph name="ampersand" format="1">
  <advance width="842"/>
  <unicode hex="0026"/>
  <outline>
    <contour>
      <point x="686" y="-13" type="curve"/>
      <point x="796" y="-13"/>
      <point x="813" y="118"/>
      <point x="795" y="147" type="curve"/>
      <point x="747" y="130" type="line"/>
      <point x="747" y="102"/>
      <point x="738" y="82"/>
      <point x="704" y="82" type="curve"/>
      <point x="668" y="82"/>
      <point x="635" y="126"/>
      <point x="635" y="126" type="curve"/>
      <point x="635" y="126"/>
      <point x="721" y="267"/>
      <point x="705" y="448" type="curve" smooth="yes"/>
      <point x="702" y="483"/>
      <point x="689" y="502"/>
      <point x="689" y="502" type="curve"/>
      <point x="639" y="486" type="line"/>
      <point x="660" y="320"/>
      <point x="567" y="212"/>
      <point x="567" y="212" type="curve"/>
      <point x="332" y="514" type="line"/>
      <point x="332" y="514"/>
      <point x="504" y="601"/>
      <point x="504" y="738" type="curve"/>
      <point x="504" y="833"/>
      <point x="423" y="927"/>
      <point x="305" y="927" type="curve" smooth="yes"/>
      <point x="197" y="927"/>
      <point x="108" y="849"/>
      <point x="108" y="741" type="curve" smooth="yes"/>
      <point x="108" y="644"/>
      <point x="177" y="558"/>
      <point x="177" y="558" type="curve"/>
      <point x="177" y="558"/>
      <point x="40" y="482"/>
      <point x="40" y="320" type="curve"/>
      <point x="40" y="149"/>
      <point x="166" y="-13"/>
      <point x="384" y="-13" type="curve"/>
      <point x="492" y="-13"/>
      <point x="561" y="49"/>
      <point x="561" y="49" type="curve"/>
      <point x="596" y="10"/>
      <point x="629" y="-13"/>
    </contour>
    <contour>
      <point x="305" y="807" type="curve"/>
      <point x="348" y="807"/>
      <point x="386" y="773"/>
      <point x="386" y="725" type="curve"/>
      <point x="386" y="657"/>
      <point x="273" y="607"/>
      <point x="273" y="607" type="curve"/>
      <point x="273" y="607"/>
      <point x="226" y="664"/>
      <point x="226" y="732" type="curve"/>
      <point x="226" y="782"/>
      <point x="259" y="807"/>
    </contour>
    <contour>
      <point x="487" y="146" type="line"/>
      <point x="487" y="146"/>
      <point x="456" y="114"/>
      <point x="376" y="114" type="curve" smooth="yes"/>
      <point x="257" y="114"/>
      <point x="159" y="209"/>
      <point x="159" y="315" type="curve"/>
      <point x="159" y="418"/>
      <point x="237" y="461"/>
      <point x="237" y="461" type="curve"/>
    </contour>
  </outline>
</glyph>
<glyph name="quotesingle" format="1">
  <advance width="250"/>
  <unicode hex="0027"/>
  <outline>
    <contour>
      <point x="40" y="825" type="line"/>
      <point x="98" y="767"/>
      <point x="98" y="657"/>
      <point x="98" y="657" type="curve"/>
      <point x="147" y="657" type="line"/>
      <point x="147" y="657"/>
      <point x="147" y="762"/>
      <point x="210" y="825" type="curve"/>
      <point x="210" y="847" type="line"/>
      <point x="136" y="920" type="line"/>
      <point x="114" y="920" type="line"/>
      <point x="40" y="847" type="line"/>
    </contour>
  </outline>
</glyph>
<glyph name="parenleft" format="1">
  <advance width="433"/>
  <unicode hex="0028"/>
  <outline>
    <contour>
      <point x="388" y="-116" type="line"/>
      <point x="330" y="-116"/>
      <point x="152" y="34"/>
      <point x="152" y="304" type="curve" smooth="yes"/>
      <point x="152" y="576"/>
      <point x="325" y="730"/>
      <point x="390" y="730" type="curve"/>
      <point x="426" y="808" type="line"/>
      <point x="253" y="808"/>
      <point x="29" y="617"/>
      <point x="29" y="304" type="curve" smooth="yes"/>
      <point x="29" y="-29"/>
      <point x="277" y="-194"/>
      <point x="427" y="-194" type="curve"/>
    </contour>
  </outline>
</glyph>
<glyph name="parenright" format="1">
  <advance width="433"/>
  <unicode hex="0029"/>
  <outline>
    <contour>
      <point x="-6" y="-194" type="line"/>
      <point x="144" y="-194"/>
      <point x="392" y="-29"/>
      <point x="392" y="304" type="curve" smooth="yes"/>
      <point x="392" y="617"/>
      <point x="169" y="808"/>
      <point x="-5" y="808" type="curve"/>
      <point x="31" y="730" type="line"/>
      <point x="96" y="730"/>
      <point x="269" y="576"/>
      <point x="269" y="304" type="curve" smooth="yes"/>
      <point x="269" y="34"/>
      <point x="91" y="-116"/>
      <point x="34" y="-116" type="curve"/>
    </contour>
  </outline>
</glyph>
<glyph name="asterisk" format="1">
  <advance width="452"/>
  <unicode hex="002A"/>
  <outline>
    <contour>
      <point x="349" y="322" type="line"/>
      <point x="392" y="365" type="line"/>
      <point x="275" y="466" type="line"/>
      <point x="412" y="456" type="line"/>
      <point x="412" y="517" type="line"/>
      <point x="274" y="507" type="line"/>
      <point x="392" y="609" type="line"/>
      <point x="349" y="652" type="line"/>
      <point x="247" y="535" type="line"/>
      <point x="257" y="673" type="line"/>
      <point x="196" y="673" type="line"/>
      <point x="206" y="536" type="line"/>
      <point x="104" y="653" type="line"/>
      <point x="61" y="610" type="line"/>
      <point x="179" y="507" type="line"/>
      <point x="40" y="517" type="line"/>
      <point x="40" y="457" type="line"/>
      <point x="178" y="467" type="line"/>
      <point x="61" y="364" type="line"/>
      <point x="103" y="322" type="line"/>
      <point x="206" y="439" type="line"/>
      <point x="196" y="301" type="line"/>
      <point x="257" y="301" type="line"/>
      <point x="247" y="439" type="line"/>
    </contour>
  </outline>
</glyph>
<glyph name="plus" format="1">
  <advance width="532"/>
  <unicode hex="002B"/>
  <outline>
    <contour>
      <point x="236" y="0" type="line"/>
      <point x="297" y="0" type="line"/>
      <point x="297" y="492" type="line"/>
      <point x="236" y="492" type="line"/>
    </contour>
    <contour>
      <point x="512" y="215" type="line"/>
      <point x="512" y="276" type="line"/>
      <point x="20" y="276" type="line"/>
      <point x="20" y="215" type="line"/>
    </contour>
  </outline>
</glyph>
<glyph name="comma" format="1">
  <advance width="294"/>
  <unicode hex="002C"/>
  <outline>
    <contour>
      <point x="94" y="81" type="line"/>
      <point x="158" y="0"/>
      <point x="81" y="-77"/>
      <point x="42" y="-39" type="curve"/>
      <point x="0" y="-71" type="line"/>
      <point x="0" y="-71"/>
      <point x="24" y="-108"/>
      <point x="78" y="-108" type="curve" smooth="yes"/>
      <point x="165" y="-108"/>
      <point x="246" y="25"/>
      <point x="284" y="81" type="curve"/>
      <point x="284" y="103" type="line"/>
      <point x="200" y="186" type="line"/>
      <point x="178" y="186" type="line"/>
      <point x="94" y="103" type="line"/>
    </contour>
  </outline>
</glyph>
<glyph name="hyphen" format="1">
  <advance width="422"/>
  <unicode hex="002D"/>
  <outline>
    <contour>
      <point x="187" y="218" type="curve"/>
      <point x="239" y="218" type="line" smooth="yes"/>
      <point x="368" y="218"/>
      <point x="382" y="341"/>
      <point x="382" y="407" type="curve"/>
      <point x="332" y="391" type="line"/>
      <point x="332" y="376"/>
      <point x="328" y="338"/>
      <point x="227" y="338" type="curve" smooth="yes"/>
      <point x="179" y="338" type="line" smooth="yes"/>
      <point x="38" y="338"/>
      <point x="32" y="206"/>
      <point x="32" y="148" type="curve"/>
      <point x="82" y="165" type="line"/>
      <point x="82" y="180"/>
      <point x="87" y="218"/>
    </contour>
  </outline>
</glyph>
<glyph name="period" format="1">
  <advance width="270"/>
  <unicode hex="002E"/>
  <outline>
    <contour>
      <point x="146" y="-13" type="line"/>
      <point x="124" y="-13" type="line"/>
      <point x="40" y="71" type="line"/>
      <point x="40" y="93" type="line"/>
      <point x="124" y="176" type="line"/>
      <point x="146" y="176" type="line"/>
      <point x="230" y="93" type="line"/>
      <point x="230" y="71" type="line"/>
    </contour>
  </outline>
</glyph>
<glyph name="slash" format="1">
  <advance width="428"/>
  <unicode hex="002F"/>
  <outline>
    <contour>
      <point x="37" y="-107" type="line"/>
      <point x="93" y="-132" type="line"/>
      <point x="428" y="620" type="line"/>
      <point x="372" y="645" type="line"/>
    </contour>
  </outline>
</glyph>
<glyph name="zero" format="1">
  <advance width="554"/>
  <unicode hex="0030"/>
  <outline>
    <contour>
      <point x="20" y="243" type="curve" smooth="yes"/>
      <point x="20" y="385"/>
      <point x="135" y="500"/>
      <point x="277" y="500" type="curve" smooth="yes"/>
      <point x="419" y="500"/>
      <point x="534" y="385"/>
      <point x="534" y="243" type="curve" smooth="yes"/>
      <point x="534" y="101"/>
      <point x="419" y="-14"/>
      <point x="277" y="-14" type="curve" smooth="yes"/>
      <point x="135" y="-14"/>
      <point x="20" y="101"/>
    </contour>
    <contour>
      <point x="81" y="243" type="curve" smooth="yes"/>
      <point x="81" y="135"/>
      <point x="168" y="48"/>
      <point x="276" y="48" type="curve" smooth="yes"/>
      <point x="384" y="48"/>
      <point x="471" y="135"/>
      <point x="471" y="243" type="curve" smooth="yes"/>
      <point x="471" y="351"/>
      <point x="384" y="438"/>
      <point x="276" y="438" type="curve" smooth="yes"/>
      <point x="168" y="438"/>
      <point x="81" y="351"/>
    </contour>
  </outline>
</glyph>
<glyph name="one" format="1">
  <advance width="364"/>
  <unicode hex="0031"/>
  <outline>
    <contour>
      <point x="250" y="126" type="line"/>
      <point x="324" y="64" type="line"/>
      <point x="324" y="0" type="line"/>
      <point x="57" y="0" type="line"/>
      <point x="57" y="64" type="line"/>
      <point x="131" y="126" type="line"/>
      <point x="131" y="362" type="line"/>
      <point x="131" y="362"/>
      <point x="108" y="342"/>
      <point x="46" y="342" type="curve"/>
      <point x="20" y="389" type="line"/>
      <point x="91" y="389"/>
      <point x="137" y="492"/>
      <point x="137" y="492" type="curve"/>
      <point x="250" y="492" type="line"/>
    </contour>
  </outline>
</glyph>
<glyph name="two" format="1">
  <advance width="525"/>
  <unicode hex="0032"/>
  <outline>
    <contour>
      <point x="40" y="0" type="line"/>
      <point x="452" y="0" type="line"/>
      <point x="505" y="120" type="line"/>
      <point x="248" y="120" type="line"/>
      <point x="348" y="173" type="line" smooth="yes"/>
      <point x="432" y="217"/>
      <point x="462" y="292"/>
      <point x="462" y="345" type="curve" smooth="yes"/>
      <point x="462" y="428"/>
      <point x="380" y="499"/>
      <point x="274" y="499" type="curve" smooth="yes"/>
      <point x="102" y="499"/>
      <point x="73" y="370"/>
      <point x="73" y="332" type="curve" smooth="yes"/>
      <point x="73" y="263"/>
      <point x="111" y="230"/>
      <point x="111" y="230" type="curve"/>
      <point x="159" y="249" type="line"/>
      <point x="159" y="249"/>
      <point x="143" y="267"/>
      <point x="143" y="298" type="curve"/>
      <point x="143" y="342"/>
      <point x="190" y="380"/>
      <point x="248" y="380" type="curve" smooth="yes"/>
      <point x="292" y="380"/>
      <point x="343" y="347"/>
      <point x="343" y="308" type="curve" smooth="yes"/>
      <point x="343" y="260"/>
      <point x="321" y="229"/>
      <point x="275" y="202" type="curve" smooth="yes"/>
      <point x="40" y="61" type="line"/>
    </contour>
  </outline>
</glyph>
<glyph name="three" format="1">
  <advance width="539"/>
  <unicode hex="0033"/>
  <outline>
    <contour>
      <point x="315" y="120" type="curve"/>
      <point x="395" y="134"/>
      <point x="468" y="223"/>
      <point x="468" y="309" type="curve" smooth="yes"/>
      <point x="468" y="403"/>
      <point x="391" y="499"/>
      <point x="273" y="499" type="curve" smooth="yes"/>
      <point x="121" y="499"/>
      <point x="73" y="384"/>
      <point x="73" y="332" type="curve" smooth="yes"/>
      <point x="73" y="263"/>
      <point x="111" y="230"/>
      <point x="111" y="230" type="curve"/>
      <point x="159" y="249" type="line"/>
      <point x="159" y="249"/>
      <point x="143" y="267"/>
      <point x="143" y="298" type="curve" smooth="yes"/>
      <point x="143" y="342"/>
      <point x="190" y="380"/>
      <point x="247" y="380" type="curve" smooth="yes"/>
      <point x="299" y="380"/>
      <point x="349" y="344"/>
      <point x="349" y="283" type="curve" smooth="yes"/>
      <point x="349" y="208"/>
      <point x="293" y="147"/>
      <point x="187" y="147" type="curve"/>
      <point x="187" y="26" type="line"/>
      <point x="280" y="27" type="line" smooth="yes"/>
      <point x="344" y="27"/>
      <point x="383" y="-21"/>
      <point x="383" y="-76" type="curve" smooth="yes"/>
      <point x="383" y="-144"/>
      <point x="319" y="-193"/>
      <point x="255" y="-193" type="curve" smooth="yes"/>
      <point x="138" y="-193"/>
      <point x="77" y="-125"/>
      <point x="77" y="8" type="curve"/>
      <point x="26" y="-8" type="line"/>
      <point x="26" y="-8"/>
      <point x="20" y="-25"/>
      <point x="20" y="-49" type="curve" smooth="yes"/>
      <point x="20" y="-176"/>
      <point x="95" y="-312"/>
      <point x="249" y="-312" type="curve" smooth="yes"/>
      <point x="405" y="-312"/>
      <point x="499" y="-193"/>
      <point x="499" y="-66" type="curve" smooth="yes"/>
      <point x="499" y="32"/>
      <point x="422" y="125"/>
    </contour>
  </outline>
</glyph>
<glyph name="four" format="1">
  <advance width="555"/>
  <unicode hex="0034"/>
  <outline>
    <contour>
      <point x="297" y="-124" type="line"/>
      <point x="408" y="-124" type="line"/>
      <point x="408" y="40" type="line"/>
      <point x="502" y="40" type="line"/>
      <point x="555" y="160" type="line"/>
      <point x="408" y="160" type="line"/>
      <point x="408" y="492" type="line"/>
      <point x="283" y="492" type="line"/>
      <point x="20" y="101" type="line"/>
      <point x="20" y="40" type="line"/>
      <point x="297" y="40" type="line"/>
    </contour>
    <contour>
      <point x="137" y="160" type="line"/>
      <point x="297" y="398" type="line"/>
      <point x="297" y="160" type="line"/>
    </contour>
  </outline>
</glyph>
<glyph name="five" format="1">
  <advance width="484"/>
  <unicode hex="0035"/>
  <outline>
    <contour>
      <point x="40" y="79" type="line"/>
      <point x="101" y="79" type="line"/>
      <point x="101" y="79"/>
      <point x="172" y="141"/>
      <point x="243" y="141" type="curve" smooth="yes"/>
      <point x="306" y="141"/>
      <point x="349" y="90"/>
      <point x="349" y="20" type="curve" smooth="yes"/>
      <point x="349" y="-32"/>
      <point x="315" y="-121"/>
      <point x="196" y="-199" type="curve" smooth="yes"/>
      <point x="76" y="-277" type="line"/>
      <point x="92" y="-328" type="line"/>
      <point x="146" y="-302" type="line" smooth="yes"/>
      <point x="365" y="-197"/>
      <point x="464" y="-79"/>
      <point x="464" y="51" type="curve" smooth="yes"/>
      <point x="464" y="165"/>
      <point x="383" y="261"/>
      <point x="277" y="261" type="curve" smooth="yes"/>
      <point x="192" y="261"/>
      <point x="152" y="208"/>
      <point x="152" y="208" type="curve"/>
      <point x="152" y="372" type="line"/>
      <point x="389" y="372" type="line"/>
      <point x="442" y="492" type="line"/>
      <point x="40" y="492" type="line"/>
    </contour>
  </outline>
</glyph>
<glyph name="six" format="1">
  <advance width="584"/>
  <unicode hex="0036"/>
  <outline>
    <contour>
      <point x="40" y="320" type="curve" smooth="yes"/>
      <point x="40" y="109"/>
      <point x="159" y="-13"/>
      <point x="304" y="-13" type="curve" smooth="yes"/>
      <point x="440" y="-13"/>
      <point x="544" y="110"/>
      <point x="544" y="223" type="curve" smooth="yes"/>
      <point x="544" y="361"/>
      <point x="443" y="462"/>
      <point x="322" y="462" type="curve" smooth="yes"/>
      <point x="217" y="462"/>
      <point x="157" y="387"/>
      <point x="157" y="387" type="curve"/>
      <point x="157" y="474"/>
      <point x="233" y="675"/>
      <point x="447" y="712" type="curve"/>
      <point x="431" y="763" type="line"/>
      <point x="211" y="748"/>
      <point x="40" y="530"/>
    </contour>
    <contour>
      <point x="425" y="238" type="curve" smooth="yes"/>
      <point x="425" y="159"/>
      <point x="366" y="108"/>
      <point x="304" y="108" type="curve" smooth="yes"/>
      <point x="221" y="108"/>
      <point x="154" y="187"/>
      <point x="154" y="275" type="curve"/>
      <point x="154" y="275"/>
      <point x="189" y="369"/>
      <point x="291" y="369" type="curve"/>
      <point x="382" y="369"/>
      <point x="425" y="296"/>
    </contour>
  </outline>
</glyph>
<glyph name="seven" format="1">
  <advance width="532"/>
  <unicode hex="0037"/>
  <outline>
    <contour>
      <point x="333" y="378" type="line"/>
      <point x="76" y="-312" type="line"/>
      <point x="125" y="-312" type="line"/>
      <point x="512" y="431" type="line"/>
      <point x="512" y="492" type="line"/>
      <point x="40" y="492" type="line"/>
      <point x="40" y="326" type="line"/>
      <point x="118" y="326" type="line"/>
      <point x="152" y="378" type="line"/>
    </contour>
  </outline>
</glyph>
<glyph name="eight" format="1">
  <advance width="572"/>
  <unicode hex="0038"/>
  <outline>
    <contour>
      <point x="532" y="209" type="curve" smooth="yes"/>
      <point x="532" y="299"/>
      <point x="487" y="367"/>
      <point x="404" y="410" type="curve"/>
      <point x="472" y="450"/>
      <point x="493" y="513"/>
      <point x="493" y="562" type="curve" smooth="yes"/>
      <point x="493" y="639"/>
      <point x="406" y="746"/>
      <point x="286" y="746" type="curve" smooth="yes"/>
      <point x="167" y="746"/>
      <point x="80" y="641"/>
      <point x="80" y="561" type="curve" smooth="yes"/>
      <point x="80" y="512"/>
      <point x="100" y="450"/>
      <point x="169" y="410" type="curve"/>
      <point x="94" y="367"/>
      <point x="40" y="299"/>
      <point x="40" y="209" type="curve" smooth="yes"/>
      <point x="40" y="102"/>
      <point x="138" y="-13"/>
      <point x="286" y="-13" type="curve" smooth="yes"/>
      <point x="433" y="-13"/>
      <point x="532" y="102"/>
    </contour>
    <contour>
      <point x="162" y="236" type="curve" smooth="yes"/>
      <point x="162" y="298"/>
      <point x="218" y="362"/>
      <point x="278" y="362" type="curve" smooth="yes"/>
      <point x="286" y="362" type="line" smooth="yes"/>
      <point x="348" y="362"/>
      <point x="410" y="300"/>
      <point x="410" y="236" type="curve" smooth="yes"/>
      <point x="410" y="160"/>
      <point x="354" y="107"/>
      <point x="286" y="107" type="curve" smooth="yes"/>
      <point x="216" y="107"/>
      <point x="162" y="171"/>
    </contour>
    <contour>
      <point x="286" y="626" type="curve" smooth="yes"/>
      <point x="326" y="626"/>
      <point x="371" y="594"/>
      <point x="371" y="537" type="curve" smooth="yes"/>
      <point x="371" y="484"/>
      <point x="327" y="447"/>
      <point x="292" y="447" type="curve" smooth="yes"/>
      <point x="286" y="447" type="line" smooth="yes"/>
      <point x="247" y="447"/>
      <point x="202" y="483"/>
      <point x="202" y="536" type="curve" smooth="yes"/>
      <point x="202" y="595"/>
      <point x="245" y="626"/>
    </contour>
  </outline>
</glyph>
<glyph name="nine" format="1">
  <advance width="584"/>
  <unicode hex="0039"/>
  <outline>
    <contour>
      <point x="544" y="166" type="curve" smooth="yes"/>
      <point x="544" y="388"/>
      <point x="424" y="498"/>
      <point x="289" y="498" type="curve" smooth="yes"/>
      <point x="155" y="498"/>
      <point x="40" y="378"/>
      <point x="40" y="259" type="curve" smooth="yes"/>
      <point x="40" y="114"/>
      <point x="153" y="23"/>
      <point x="263" y="23" type="curve" smooth="yes"/>
      <point x="373" y="23"/>
      <point x="427" y="99"/>
      <point x="427" y="99" type="curve"/>
      <point x="427" y="-86"/>
      <point x="179" y="-277"/>
      <point x="86" y="-277" type="curve"/>
      <point x="102" y="-328" type="line"/>
      <point x="248" y="-328"/>
      <point x="544" y="-149"/>
    </contour>
    <contour>
      <point x="159" y="245" type="curve" smooth="yes"/>
      <point x="159" y="325"/>
      <point x="230" y="377"/>
      <point x="289" y="377" type="curve" smooth="yes"/>
      <point x="372" y="377"/>
      <point x="430" y="300"/>
      <point x="430" y="210" type="curve"/>
      <point x="430" y="210"/>
      <point x="398" y="116"/>
      <point x="289" y="116" type="curve" smooth="yes"/>
      <point x="221" y="116"/>
      <point x="159" y="171"/>
    </contour>
  </outline>
</glyph>
<glyph name="colon" format="1">
  <advance width="270"/>
  <unicode hex="003A"/>
  <outline>
    <contour>
      <point x="146" y="-13" type="line"/>
      <point x="124" y="-13" type="line"/>
      <point x="40" y="71" type="line"/>
      <point x="40" y="93" type="line"/>
      <point x="124" y="176" type="line"/>
      <point x="146" y="176" type="line"/>
      <point x="230" y="93" type="line"/>
      <point x="230" y="71" type="line"/>
    </contour>
    <contour>
      <point x="146" y="303" type="line"/>
      <point x="124" y="303" type="line"/>
      <point x="40" y="387" type="line"/>
      <point x="40" y="409" type="line"/>
      <point x="124" y="492" type="line"/>
      <point x="146" y="492" type="line"/>
      <point x="230" y="409" type="line"/>
      <point x="230" y="387" type="line"/>
    </contour>
  </outline>
</glyph>
<glyph name="semicolon" format="1">
  <advance width="324"/>
  <unicode hex="003B"/>
  <outline>
    <contour>
      <point x="200" y="303" type="line"/>
      <point x="178" y="303" type="line"/>
      <point x="94" y="387" type="line"/>
      <point x="94" y="409" type="line"/>
      <point x="178" y="492" type="line"/>
      <point x="200" y="492" type="line"/>
      <point x="284" y="409" type="line"/>
      <point x="284" y="387" type="line"/>
    </contour>
    <contour>
      <point x="94" y="72" type="line"/>
      <point x="158" y="-9"/>
      <point x="81" y="-77"/>
      <point x="42" y="-39" type="curve"/>
      <point x="0" y="-71" type="line"/>
      <point x="0" y="-71"/>
      <point x="24" y="-108"/>
      <point x="78" y="-108" type="curve" smooth="yes"/>
      <point x="165" y="-108"/>
      <point x="246" y="16"/>
      <point x="284" y="72" type="curve"/>
      <point x="284" y="94" type="line"/>
      <point x="200" y="176" type="line"/>
      <point x="178" y="176" type="line"/>
      <point x="94" y="94" type="line"/>
    </contour>
  </outline>
</glyph>
<glyph name="equal" format="1">
  <advance width="572"/>
  <unicode hex="003D"/>
  <outline>
    <contour>
      <point x="532" y="134" type="line"/>
      <point x="532" y="195" type="line"/>
      <point x="40" y="195" type="line"/>
      <point x="40" y="134" type="line"/>
    </contour>
    <contour>
      <point x="532" y="296" type="line"/>
      <point x="532" y="357" type="line"/>
      <point x="40" y="357" type="line"/>
      <point x="40" y="296" type="line"/>
    </contour>
  </outline>
</glyph>
<glyph name="question" format="1">
  <advance width="566"/>
  <unicode hex="003F"/>
  <outline>
    <contour>
      <point x="112" y="612" type="line"/>
      <point x="92" y="689"/>
      <point x="135" y="807"/>
      <point x="254" y="807" type="curve" smooth="yes"/>
      <point x="351" y="807"/>
      <point x="401" y="751"/>
      <point x="401" y="687" type="curve" smooth="yes"/>
      <point x="401" y="627"/>
      <point x="360" y="589"/>
      <point x="297" y="563" type="curve" smooth="yes"/>
      <point x="217" y="530"/>
      <point x="148" y="471"/>
      <point x="148" y="386" type="curve"/>
      <point x="148" y="302"/>
      <point x="207" y="257"/>
      <point x="264" y="257" type="curve"/>
      <point x="334" y="257"/>
      <point x="372" y="318"/>
      <point x="372" y="371" type="curve"/>
      <point x="372" y="396"/>
      <point x="366" y="418"/>
      <point x="366" y="418" type="curve"/>
      <point x="317" y="399" type="line"/>
      <point x="317" y="399"/>
      <point x="315" y="353"/>
      <point x="284" y="353" type="curve"/>
      <point x="270" y="353"/>
      <point x="260" y="360"/>
      <point x="260" y="387" type="curve" smooth="yes"/>
      <point x="260" y="417"/>
      <point x="281" y="453"/>
      <point x="345" y="478" type="curve" smooth="yes"/>
      <point x="444" y="517"/>
      <point x="513" y="596"/>
      <point x="513" y="693" type="curve" smooth="yes"/>
      <point x="513" y="795"/>
      <point x="447" y="927"/>
      <point x="273" y="927" type="curve" smooth="yes"/>
      <point x="99" y="927"/>
      <point x="35" y="774"/>
      <point x="43" y="681" type="curve" smooth="yes"/>
      <point x="48" y="624"/>
      <point x="61" y="597"/>
      <point x="61" y="597" type="curve"/>
    </contour>
    <contour>
      <point x="290" y="-13" type="line"/>
      <point x="268" y="-13" type="line"/>
      <point x="184" y="71" type="line"/>
      <point x="184" y="93" type="line"/>
      <point x="268" y="176" type="line"/>
      <point x="290" y="176" type="line"/>
      <point x="374" y="93" type="line"/>
      <point x="374" y="71" type="line"/>
    </contour>
  </outline>
</glyph>
<glyph name="at" format="1">
  <advance width="924"/>
  <unicode hex="0040"/>
  <outline>
    <contour>
      <point x="580" y="167" type="line" smooth="yes"/>
      <point x="580" y="147"/>
      <point x="514" y="98"/>
      <point x="444" y="98" type="curve" smooth="yes"/>
      <point x="399" y="98"/>
      <point x="365" y="117"/>
      <point x="365" y="146" type="curve" smooth="yes"/>
      <point x="365" y="176"/>
      <point x="377" y="206"/>
      <point x="437" y="214" type="curve" smooth="yes"/>
      <point x="580" y="233" type="line"/>
    </contour>
    <contour>
      <point x="583" y="-64" type="line"/>
      <point x="583" y="-64"/>
      <point x="543" y="-102"/>
      <point x="457" y="-102" type="curve" smooth="yes"/>
      <point x="313" y="-102"/>
      <point x="143" y="34"/>
      <point x="143" y="262" type="curve" smooth="yes"/>
      <point x="143" y="466"/>
      <point x="316" y="602"/>
      <point x="484" y="602" type="curve" smooth="yes"/>
      <point x="627" y="602"/>
      <point x="805" y="497"/>
      <point x="805" y="291" type="curve" smooth="yes"/>
      <point x="805" y="171"/>
      <point x="748" y="96"/>
      <point x="719" y="96" type="curve" smooth="yes"/>
      <point x="697" y="96"/>
      <point x="692" y="133"/>
      <point x="692" y="185" type="curve" smooth="yes"/>
      <point x="692" y="338" type="line" smooth="yes"/>
      <point x="692" y="417"/>
      <point x="625" y="499"/>
      <point x="475" y="499" type="curve" smooth="yes"/>
      <point x="360" y="499"/>
      <point x="270" y="416"/>
      <point x="270" y="350" type="curve" smooth="yes"/>
      <point x="270" y="307"/>
      <point x="288" y="277"/>
      <point x="288" y="277" type="curve"/>
      <point x="337" y="296" type="line"/>
      <point x="337" y="325"/>
      <point x="350" y="385"/>
      <point x="454" y="385" type="curve" smooth="yes"/>
      <point x="518" y="385"/>
      <point x="572" y="355"/>
      <point x="572" y="314" type="curve" smooth="yes"/>
      <point x="572" y="289" type="line"/>
      <point x="413" y="289" type="line" smooth="yes"/>
      <point x="340" y="289"/>
      <point x="249" y="240"/>
      <point x="249" y="148" type="curve" smooth="yes"/>
      <point x="249" y="31"/>
      <point x="354" y="-12"/>
      <point x="436" y="-12" type="curve" smooth="yes"/>
      <point x="532" y="-12"/>
      <point x="610" y="67"/>
      <point x="610" y="67" type="curve"/>
      <point x="610" y="67"/>
      <point x="640" y="0"/>
      <point x="710" y="0" type="curve" smooth="yes"/>
      <point x="805" y="0"/>
      <point x="894" y="132"/>
      <point x="894" y="318" type="curve" smooth="yes"/>
      <point x="894" y="533"/>
      <point x="710" y="727"/>
      <point x="482" y="727" type="curve" smooth="yes"/>
      <point x="253" y="727"/>
      <point x="30" y="543"/>
      <point x="30" y="263" type="curve" smooth="yes"/>
      <point x="30" y="-42"/>
      <point x="275" y="-182"/>
      <point x="436" y="-182" type="curve" smooth="yes"/>
      <point x="591" y="-182"/>
      <point x="628" y="-82"/>
      <point x="628" y="-82" type="curve"/>
    </contour>
  </outline>
</glyph>
<glyph name="A" format="1">
  <advance width="803"/>
  <unicode hex="0041"/>
  <outline>
    <contour>
      <point x="453" y="920" type="line"/>
      <point x="352" y="920" type="line"/>
      <point x="85" y="121" type="line"/>
      <point x="10" y="65" type="line"/>
      <point x="10" y="0" type="line"/>
      <point x="272" y="0" type="line"/>
      <point x="272" y="65" type="line"/>
      <point x="203" y="117" type="line"/>
      <point x="394" y="718" type="line"/>
      <point x="594" y="112" type="line"/>
      <point x="531" y="65" type="line"/>
      <point x="531" y="0" type="line"/>
      <point x="793" y="0" type="line"/>
      <point x="793" y="65" type="line"/>
      <point x="726" y="115" type="line"/>
    </contour>
    <contour>
      <point x="277" y="400" type="line"/>
      <point x="505" y="400" type="line"/>
      <point x="505" y="520" type="line"/>
      <point x="277" y="520" type="line"/>
    </contour>
  </outline>
</glyph>
<glyph name="B" format="1">
  <advance width="694"/>
  <unicode hex="0042"/>
  <outline>
    <contour>
      <point x="571" y="707" type="curve" smooth="yes"/>
      <point x="571" y="827"/>
      <point x="461" y="908"/>
      <point x="308" y="908" type="curve"/>
      <point x="32" y="908" type="line"/>
      <point x="32" y="843" type="line"/>
      <point x="55" y="828"/>
      <point x="85" y="810"/>
      <point x="110" y="795" type="curve"/>
      <point x="110" y="113" type="line"/>
      <point x="32" y="65" type="line"/>
      <point x="32" y="0" type="line"/>
      <point x="325" y="0" type="line"/>
      <point x="552" y="0"/>
      <point x="689" y="131"/>
      <point x="689" y="296" type="curve" smooth="yes"/>
      <point x="689" y="448"/>
      <point x="587" y="534"/>
      <point x="498" y="567" type="curve"/>
      <point x="498" y="567"/>
      <point x="571" y="639"/>
    </contour>
    <contour>
      <point x="235" y="121" type="line"/>
      <point x="235" y="247"/>
      <point x="233" y="356"/>
      <point x="233" y="480" type="curve"/>
      <point x="350" y="480" type="line"/>
      <point x="456" y="480"/>
      <point x="572" y="412"/>
      <point x="572" y="294" type="curve" smooth="yes"/>
      <point x="572" y="177"/>
      <point x="454" y="121"/>
      <point x="336" y="121" type="curve"/>
    </contour>
    <contour>
      <point x="233" y="796" type="line"/>
      <point x="322" y="796" type="line"/>
      <point x="403" y="796"/>
      <point x="451" y="760"/>
      <point x="451" y="707" type="curve" smooth="yes"/>
      <point x="451" y="651"/>
      <point x="402" y="612"/>
      <point x="320" y="612" type="curve"/>
      <point x="233" y="612" type="line"/>
    </contour>
  </outline>
</glyph>
<glyph name="C" format="1">
  <advance width="770"/>
  <unicode hex="0043"/>
  <outline>
    <contour>
      <point x="692" y="667" type="line"/>
      <point x="692" y="908" type="line"/>
      <point x="610" y="908" type="line"/>
      <point x="588" y="870" type="line"/>
      <point x="588" y="870"/>
      <point x="490" y="915"/>
      <point x="415" y="915" type="curve" smooth="yes"/>
      <point x="199" y="915"/>
      <point x="34" y="742"/>
      <point x="34" y="449" type="curve" smooth="yes"/>
      <point x="34" y="159"/>
      <point x="217" y="-13"/>
      <point x="426" y="-13" type="curve" smooth="yes"/>
      <point x="624" y="-13"/>
      <point x="739" y="152"/>
      <point x="739" y="263" type="curve" smooth="yes"/>
      <point x="739" y="276"/>
      <point x="736" y="294"/>
      <point x="727" y="322" type="curve"/>
      <point x="636" y="291" type="line"/>
      <point x="631" y="201"/>
      <point x="533" y="109"/>
      <point x="427" y="109" type="curve" smooth="yes"/>
      <point x="294" y="109"/>
      <point x="156" y="223"/>
      <point x="156" y="450" type="curve" smooth="yes"/>
      <point x="156" y="670"/>
      <point x="278" y="792"/>
      <point x="412" y="792" type="curve" smooth="yes"/>
      <point x="545" y="792"/>
      <point x="610" y="667"/>
      <point x="610" y="667" type="curve"/>
    </contour>
  </outline>
</glyph>
<glyph name="D" format="1">
  <advance width="847"/>
  <unicode hex="0044"/>
  <outline>
    <contour>
      <point x="374" y="0" type="line"/>
      <point x="639" y="0"/>
      <point x="807" y="168"/>
      <point x="807" y="459" type="curve" smooth="yes"/>
      <point x="807" y="759"/>
      <point x="639" y="920"/>
      <point x="372" y="920" type="curve"/>
      <point x="81" y="920" type="line"/>
      <point x="81" y="855" type="line"/>
      <point x="156" y="798" type="line"/>
      <point x="156" y="121" type="line"/>
      <point x="80" y="65" type="line"/>
      <point x="80" y="0" type="line"/>
    </contour>
    <contour>
      <point x="268" y="115" type="line"/>
      <point x="268" y="800" type="line"/>
      <point x="372" y="800" type="line"/>
      <point x="556" y="800"/>
      <point x="694" y="691"/>
      <point x="694" y="459" type="curve" smooth="yes"/>
      <point x="694" y="239"/>
      <point x="557" y="115"/>
      <point x="372" y="115" type="curve"/>
    </contour>
  </outline>
</glyph>
<glyph name="E" format="1">
  <advance width="640"/>
  <unicode hex="0045"/>
  <outline>
    <contour>
      <point x="528" y="169" type="line"/>
      <point x="493" y="122" type="line"/>
      <point x="404" y="122"/>
      <point x="322" y="121"/>
      <point x="234" y="121" type="curve"/>
      <point x="234" y="213"/>
      <point x="232" y="289"/>
      <point x="232" y="378" type="curve"/>
      <point x="452" y="378" type="line"/>
      <point x="503" y="503" type="line"/>
      <point x="232" y="503" type="line"/>
      <point x="232" y="787" type="line"/>
      <point x="457" y="787" type="line"/>
      <point x="490" y="739" type="line"/>
      <point x="574" y="739" type="line"/>
      <point x="541" y="908" type="line"/>
      <point x="31" y="908" type="line"/>
      <point x="31" y="843" type="line"/>
      <point x="54" y="828"/>
      <point x="84" y="810"/>
      <point x="109" y="795" type="curve"/>
      <point x="109" y="113" type="line"/>
      <point x="31" y="65" type="line"/>
      <point x="31" y="0" type="line"/>
      <point x="576" y="0" type="line"/>
      <point x="610" y="169" type="line"/>
    </contour>
  </outline>
</glyph>
<glyph name="F" format="1">
  <advance width="546"/>
  <unicode hex="0046"/>
  <outline>
    <contour>
      <point x="308" y="0" type="line"/>
      <point x="308" y="65" type="line"/>
      <point x="286" y="80"/>
      <point x="256" y="98"/>
      <point x="230" y="114" type="curve"/>
      <point x="230" y="378" type="line"/>
      <point x="452" y="378" type="line"/>
      <point x="502" y="503" type="line"/>
      <point x="230" y="503" type="line"/>
      <point x="230" y="787" type="line"/>
      <point x="457" y="787" type="line"/>
      <point x="490" y="739" type="line"/>
      <point x="574" y="739" type="line"/>
      <point x="541" y="908" type="line"/>
      <point x="31" y="908" type="line"/>
      <point x="31" y="843" type="line"/>
      <point x="54" y="828"/>
      <point x="83" y="810"/>
      <point x="108" y="795" type="curve"/>
      <point x="108" y="113" type="line"/>
      <point x="31" y="65" type="line"/>
      <point x="31" y="0" type="line"/>
    </contour>
  </outline>
</glyph>
<glyph name="G" format="1">
  <advance width="766"/>
  <unicode hex="0047"/>
  <outline>
    <contour>
      <point x="669" y="679" type="line"/>
      <point x="669" y="920" type="line"/>
      <point x="604" y="920" type="line"/>
      <point x="568" y="883" type="line"/>
      <point x="568" y="883"/>
      <point x="508" y="927"/>
      <point x="393" y="927" type="curve" smooth="yes"/>
      <point x="203" y="927"/>
      <point x="20" y="762"/>
      <point x="20" y="456" type="curve" smooth="yes"/>
      <point x="20" y="176"/>
      <point x="180" y="-13"/>
      <point x="400" y="-13" type="curve" smooth="yes"/>
      <point x="615" y="-13"/>
      <point x="758" y="179"/>
      <point x="745" y="492" type="curve"/>
      <point x="490" y="492" type="line"/>
      <point x="437" y="372" type="line"/>
      <point x="625" y="372" type="line"/>
      <point x="625" y="314"/>
      <point x="587" y="114"/>
      <point x="393" y="114" type="curve"/>
      <point x="255" y="114"/>
      <point x="133" y="248"/>
      <point x="133" y="455" type="curve" smooth="yes"/>
      <point x="133" y="686"/>
      <point x="272" y="801"/>
      <point x="397" y="801" type="curve" smooth="yes"/>
      <point x="537" y="801"/>
      <point x="604" y="679"/>
      <point x="604" y="679" type="curve"/>
    </contour>
  </outline>
</glyph>
<glyph name="H" format="1">
  <advance width="820"/>
  <unicode hex="0048"/>
  <outline>
    <contour>
      <point x="227" y="400" type="line"/>
      <point x="593" y="400" type="line"/>
      <point x="593" y="121" type="line"/>
      <point x="518" y="65" type="line"/>
      <point x="518" y="0" type="line"/>
      <point x="780" y="0" type="line"/>
      <point x="780" y="65" type="line"/>
      <point x="705" y="121" type="line"/>
      <point x="705" y="799" type="line"/>
      <point x="780" y="855" type="line"/>
      <point x="780" y="920" type="line"/>
      <point x="518" y="920" type="line"/>
      <point x="518" y="855" type="line"/>
      <point x="593" y="799" type="line"/>
      <point x="593" y="520" type="line"/>
      <point x="227" y="520" type="line"/>
      <point x="227" y="799" type="line"/>
      <point x="302" y="855" type="line"/>
      <point x="302" y="920" type="line"/>
      <point x="40" y="920" type="line"/>
      <point x="40" y="855" type="line"/>
      <point x="115" y="799" type="line"/>
      <point x="115" y="121" type="line"/>
      <point x="40" y="65" type="line"/>
      <point x="40" y="0" type="line"/>
      <point x="302" y="0" type="line"/>
      <point x="302" y="65" type="line"/>
      <point x="227" y="121" type="line"/>
    </contour>
  </outline>
</glyph>
<glyph name="I" format="1">
  <advance width="338"/>
  <unicode hex="0049"/>
  <outline>
    <contour>
      <point x="227" y="795" type="line"/>
      <point x="302" y="843" type="line"/>
      <point x="302" y="908" type="line"/>
      <point x="28" y="908" type="line"/>
      <point x="28" y="843" type="line"/>
      <point x="50" y="828"/>
      <point x="79" y="810"/>
      <point x="104" y="795" type="curve"/>
      <point x="104" y="113" type="line"/>
      <point x="28" y="65" type="line"/>
      <point x="28" y="0" type="line"/>
      <point x="302" y="0" type="line"/>
      <point x="302" y="65" type="line"/>
      <point x="227" y="113" type="line"/>
    </contour>
  </outline>
</glyph>
<glyph name="J" format="1">
  <advance width="578"/>
  <unicode hex="004A"/>
  <outline>
    <contour>
      <point x="484" y="795" type="line"/>
      <point x="558" y="843" type="line"/>
      <point x="558" y="908" type="line"/>
      <point x="283" y="908" type="line"/>
      <point x="283" y="843" type="line"/>
      <point x="306" y="828"/>
      <point x="336" y="810"/>
      <point x="361" y="795" type="curve"/>
      <point x="361" y="258" type="line"/>
      <point x="361" y="143"/>
      <point x="290" y="109"/>
      <point x="222" y="109" type="curve" smooth="yes"/>
      <point x="138" y="109"/>
      <point x="83" y="198"/>
      <point x="90" y="307" type="curve"/>
      <point x="5" y="277" type="line"/>
      <point x="-4" y="259"/>
      <point x="-10" y="236"/>
      <point x="-10" y="212" type="curve" smooth="yes"/>
      <point x="-10" y="123"/>
      <point x="46" y="-14"/>
      <point x="241" y="-14" type="curve" smooth="yes"/>
      <point x="366" y="-14"/>
      <point x="484" y="75"/>
      <point x="484" y="237" type="curve"/>
    </contour>
  </outline>
</glyph>
<glyph name="K" format="1">
  <advance width="725"/>
  <unicode hex="004B"/>
  <outline>
    <contour>
      <point x="609" y="799" type="line"/>
      <point x="684" y="855" type="line"/>
      <point x="684" y="920" type="line"/>
      <point x="422" y="920" type="line"/>
      <point x="422" y="855" type="line"/>
      <point x="497" y="799" type="line"/>
    </contour>
    <contour>
      <point x="422" y="855" type="line"/>
      <point x="489" y="805" type="line"/>
      <point x="227" y="533" type="line"/>
      <point x="227" y="799" type="line"/>
      <point x="302" y="855" type="line"/>
      <point x="302" y="920" type="line"/>
      <point x="40" y="920" type="line"/>
      <point x="40" y="855" type="line"/>
      <point x="115" y="799" type="line"/>
      <point x="115" y="121" type="line"/>
      <point x="40" y="65" type="line"/>
      <point x="40" y="0" type="line"/>
      <point x="302" y="0" type="line"/>
      <point x="302" y="65" type="line"/>
      <point x="227" y="121" type="line"/>
      <point x="227" y="380" type="line"/>
      <point x="227" y="462" type="line"/>
      <point x="341" y="497" type="line"/>
      <point x="684" y="856" type="line"/>
      <point x="684" y="920" type="line"/>
      <point x="422" y="920" type="line"/>
    </contour>
    <contour>
      <point x="662" y="180" type="line"/>
      <point x="662" y="180"/>
      <point x="669" y="104"/>
      <point x="593" y="104" type="curve" smooth="yes"/>
      <point x="549" y="104"/>
      <point x="525" y="132"/>
      <point x="502" y="178" type="curve" smooth="yes"/>
      <point x="340" y="497" type="line"/>
      <point x="227" y="462" type="line"/>
      <point x="406" y="113" type="line" smooth="yes"/>
      <point x="447" y="34"/>
      <point x="497" y="-13"/>
      <point x="574" y="-13" type="curve" smooth="yes"/>
      <point x="666" y="-13"/>
      <point x="725" y="73"/>
      <point x="725" y="134" type="curve" smooth="yes"/>
      <point x="725" y="173"/>
      <point x="712" y="196"/>
      <point x="712" y="196" type="curve"/>
    </contour>
  </outline>
</glyph>
<glyph name="L" format="1">
  <advance width="607"/>
  <unicode hex="004C"/>
  <outline>
    <contour>
      <point x="528" y="169" type="line"/>
      <point x="518" y="158"/>
      <point x="503" y="138"/>
      <point x="492" y="124" type="curve"/>
      <point x="232" y="124" type="line"/>
      <point x="232" y="795" type="line"/>
      <point x="306" y="843" type="line"/>
      <point x="306" y="908" type="line"/>
      <point x="31" y="908" type="line"/>
      <point x="31" y="843" type="line"/>
      <point x="54" y="828"/>
      <point x="84" y="810"/>
      <point x="109" y="795" type="curve"/>
      <point x="109" y="113" type="line"/>
      <point x="31" y="65" type="line"/>
      <point x="31" y="0" type="line"/>
      <point x="576" y="0" type="line"/>
      <point x="610" y="169" type="line"/>
    </contour>
  </outline>
</glyph>
<glyph name="M" format="1">
  <advance width="1213"/>
  <unicode hex="004D"/>
  <outline>
    <contour>
      <point x="564" y="-13" type="line"/>
      <point x="665" y="-13" type="line"/>
      <point x="946" y="599" type="line"/>
      <point x="946" y="121" type="line"/>
      <point x="871" y="65" type="line"/>
      <point x="871" y="0" type="line"/>
      <point x="1133" y="0" type="line"/>
      <point x="1133" y="65" type="line"/>
      <point x="1058" y="121" type="line"/>
      <point x="1058" y="920" type="line"/>
      <point x="970" y="920" type="line"/>
      <point x="623" y="149" type="line"/>
      <point x="275" y="920" type="line"/>
      <point x="155" y="920" type="line"/>
      <point x="155" y="121" type="line"/>
      <point x="80" y="65" type="line"/>
      <point x="80" y="0" type="line"/>
      <point x="342" y="0" type="line"/>
      <point x="342" y="65" type="line"/>
      <point x="267" y="121" type="line"/>
      <point x="267" y="642" type="line"/>
    </contour>
  </outline>
</glyph>
<glyph name="N" format="1">
  <advance width="910"/>
  <unicode hex="004E"/>
  <outline>
    <contour>
      <point x="755" y="799" type="line"/>
      <point x="830" y="855" type="line"/>
      <point x="830" y="920" type="line"/>
      <point x="568" y="920" type="line"/>
      <point x="568" y="855" type="line"/>
      <point x="643" y="799" type="line"/>
      <point x="643" y="224" type="line"/>
      <point x="275" y="919" type="line"/>
      <point x="155" y="919" type="line"/>
      <point x="155" y="121" type="line"/>
      <point x="80" y="65" type="line"/>
      <point x="80" y="0" type="line"/>
      <point x="342" y="0" type="line"/>
      <point x="342" y="65" type="line"/>
      <point x="267" y="121" type="line"/>
      <point x="267" y="674" type="line"/>
      <point x="629" y="0" type="line"/>
      <point x="755" y="0" type="line"/>
    </contour>
  </outline>
</glyph>
<glyph name="O" format="1">
  <advance width="797"/>
  <unicode hex="004F"/>
  <outline>
    <contour>
      <point x="399" y="-13" type="curve"/>
      <point x="607" y="-13"/>
      <point x="777" y="166"/>
      <point x="777" y="457" type="curve" smooth="yes"/>
      <point x="777" y="748"/>
      <point x="612" y="927"/>
      <point x="399" y="927" type="curve" smooth="yes"/>
      <point x="189" y="927"/>
      <point x="20" y="748"/>
      <point x="20" y="457" type="curve" smooth="yes"/>
      <point x="20" y="167"/>
      <point x="190" y="-13"/>
    </contour>
    <contour>
      <point x="398" y="114" type="curve"/>
      <point x="268" y="114"/>
      <point x="133" y="233"/>
      <point x="133" y="457" type="curve" smooth="yes"/>
      <point x="133" y="682"/>
      <point x="267" y="801"/>
      <point x="399" y="801" type="curve" smooth="yes"/>
      <point x="529" y="801"/>
      <point x="664" y="680"/>
      <point x="664" y="457" type="curve" smooth="yes"/>
      <point x="664" y="234"/>
      <point x="529" y="114"/>
    </contour>
  </outline>
</glyph>
<glyph name="P" format="1">
  <advance width="738"/>
  <unicode hex="0050"/>
  <outline>
    <contour>
      <point x="738" y="660" type="curve" smooth="yes"/>
      <point x="738" y="791"/>
      <point x="642" y="920"/>
      <point x="424" y="920" type="curve"/>
      <point x="80" y="920" type="line"/>
      <point x="80" y="855" type="line"/>
      <point x="155" y="799" type="line"/>
      <point x="155" y="121" type="line"/>
      <point x="80" y="65" type="line"/>
      <point x="80" y="0" type="line"/>
      <point x="342" y="0" type="line"/>
      <point x="342" y="65" type="line"/>
      <point x="267" y="121" type="line"/>
      <point x="267" y="400" type="line"/>
      <point x="424" y="400" type="line"/>
      <point x="642" y="400"/>
      <point x="738" y="529"/>
    </contour>
    <contour>
      <point x="267" y="800" type="line"/>
      <point x="431" y="800" type="line"/>
      <point x="574" y="800"/>
      <point x="626" y="721"/>
      <point x="626" y="660" type="curve" smooth="yes"/>
      <point x="626" y="599"/>
      <point x="574" y="521"/>
      <point x="431" y="521" type="curve"/>
      <point x="267" y="521" type="line"/>
    </contour>
  </outline>
</glyph>
<glyph name="Q" format="1">
  <advance width="797"/>
  <unicode hex="0051"/>
  <outline>
    <contour>
      <point x="351" y="14" type="line"/>
      <point x="351" y="-101"/>
      <point x="402" y="-180"/>
      <point x="510" y="-180" type="curve" smooth="yes"/>
      <point x="617" y="-180"/>
      <point x="665" y="-88"/>
      <point x="665" y="-28" type="curve" smooth="yes"/>
      <point x="665" y="0"/>
      <point x="652" y="29"/>
      <point x="652" y="29" type="curve"/>
      <point x="602" y="13" type="line"/>
      <point x="602" y="-19"/>
      <point x="594" y="-73"/>
      <point x="531" y="-73" type="curve"/>
      <point x="462" y="-73"/>
      <point x="463" y="14"/>
      <point x="463" y="14" type="curve"/>
    </contour>
    <contour>
      <point x="399" y="-13" type="curve" smooth="yes"/>
      <point x="607" y="-13"/>
      <point x="777" y="166"/>
      <point x="777" y="457" type="curve" smooth="yes"/>
      <point x="777" y="748"/>
      <point x="612" y="927"/>
      <point x="399" y="927" type="curve" smooth="yes"/>
      <point x="189" y="927"/>
      <point x="20" y="748"/>
      <point x="20" y="457" type="curve" smooth="yes"/>
      <point x="20" y="167"/>
      <point x="190" y="-13"/>
    </contour>
    <contour>
      <point x="398" y="114" type="curve" smooth="yes"/>
      <point x="268" y="114"/>
      <point x="133" y="233"/>
      <point x="133" y="457" type="curve" smooth="yes"/>
      <point x="133" y="682"/>
      <point x="267" y="801"/>
      <point x="399" y="801" type="curve" smooth="yes"/>
      <point x="529" y="801"/>
      <point x="664" y="680"/>
      <point x="664" y="457" type="curve" smooth="yes"/>
      <point x="664" y="234"/>
      <point x="529" y="114"/>
    </contour>
  </outline>
</glyph>
<glyph name="R" format="1">
  <advance width="865"/>
  <unicode hex="0052"/>
  <outline>
    <contour>
      <point x="353" y="370" type="move" name="top"/>
    </contour>
    <contour>
      <point x="762" y="180" type="line"/>
      <point x="762" y="180"/>
      <point x="769" y="94"/>
      <point x="693" y="94" type="curve" smooth="yes"/>
      <point x="649" y="94"/>
      <point x="624" y="113"/>
      <point x="602" y="168" type="curve" smooth="yes"/>
      <point x="505" y="407" type="line"/>
      <point x="666" y="435"/>
      <point x="738" y="546"/>
      <point x="738" y="660" type="curve" smooth="yes"/>
      <point x="738" y="791"/>
      <point x="642" y="920"/>
      <point x="424" y="920" type="curve" smooth="yes"/>
      <point x="80" y="920" type="line"/>
      <point x="80" y="855" type="line"/>
      <point x="155" y="799" type="line"/>
      <point x="155" y="121" type="line"/>
      <point x="80" y="65" type="line"/>
      <point x="80" y="0" type="line"/>
      <point x="342" y="0" type="line"/>
      <point x="342" y="65" type="line"/>
      <point x="267" y="121" type="line"/>
      <point x="267" y="400" type="line"/>
      <point x="386" y="400" type="line"/>
      <point x="508" y="113" type="line" smooth="yes"/>
      <point x="543" y="31"/>
      <point x="597" y="-13"/>
      <point x="674" y="-13" type="curve" smooth="yes"/>
      <point x="766" y="-13"/>
      <point x="825" y="73"/>
      <point x="825" y="134" type="curve" smooth="yes"/>
      <point x="825" y="173"/>
      <point x="812" y="196"/>
      <point x="812" y="196" type="curve"/>
    </contour>
    <contour>
      <point x="267" y="800" type="line"/>
      <point x="431" y="800" type="line" smooth="yes"/>
      <point x="574" y="800"/>
      <point x="626" y="721"/>
      <point x="626" y="660" type="curve" smooth="yes"/>
      <point x="626" y="599"/>
      <point x="574" y="521"/>
      <point x="431" y="521" type="curve" smooth="yes"/>
      <point x="267" y="521" type="line"/>
    </contour>
  </outline>
</glyph>
<glyph name="S" format="1">
  <advance width="688"/>
  <unicode hex="0053"/>
  <outline>
    <contour>
      <point x="143" y="312" type="line"/>
      <point x="132" y="238"/>
      <point x="199" y="114"/>
      <point x="338" y="114" type="curve" smooth="yes"/>
      <point x="440" y="114"/>
      <point x="495" y="185"/>
      <point x="495" y="247" type="curve" smooth="yes"/>
      <point x="495" y="305"/>
      <point x="476" y="349"/>
      <point x="403" y="387" type="curve" smooth="yes"/>
      <point x="204" y="490" type="line" smooth="yes"/>
      <point x="114" y="541"/>
      <point x="85" y="620"/>
      <point x="85" y="708" type="curve" smooth="yes"/>
      <point x="85" y="801"/>
      <point x="168" y="927"/>
      <point x="308" y="927" type="curve" smooth="yes"/>
      <point x="390" y="927"/>
      <point x="454" y="883"/>
      <point x="454" y="883" type="curve"/>
      <point x="490" y="920" type="line"/>
      <point x="555" y="920" type="line"/>
      <point x="555" y="679" type="line"/>
      <point x="490" y="679" type="line"/>
      <point x="490" y="679"/>
      <point x="418" y="801"/>
      <point x="315" y="801" type="curve" smooth="yes"/>
      <point x="246" y="801"/>
      <point x="198" y="747"/>
      <point x="198" y="699" type="curve" smooth="yes"/>
      <point x="198" y="635"/>
      <point x="222" y="604"/>
      <point x="299" y="560" type="curve" smooth="yes"/>
      <point x="463" y="477" type="line" smooth="yes"/>
      <point x="566" y="425"/>
      <point x="608" y="349"/>
      <point x="608" y="252" type="curve" smooth="yes"/>
      <point x="608" y="131"/>
      <point x="528" y="-13"/>
      <point x="337" y="-13" type="curve" smooth="yes"/>
      <point x="132" y="-13"/>
      <point x="80" y="165"/>
      <point x="80" y="276" type="curve" smooth="yes"/>
      <point x="80" y="307"/>
      <point x="92" y="327"/>
      <point x="92" y="327" type="curve"/>
    </contour>
  </outline>
</glyph>
<glyph name="T" format="1">
  <advance width="786"/>
  <unicode hex="0054"/>
  <outline>
    <contour>
      <point x="524" y="65" type="line"/>
      <point x="449" y="121" type="line"/>
      <point x="449" y="800" type="line"/>
      <point x="654" y="800" type="line"/>
      <point x="711" y="725" type="line"/>
      <point x="776" y="725" type="line"/>
      <point x="747" y="920" type="line"/>
      <point x="39" y="920" type="line"/>
      <point x="10" y="725" type="line"/>
      <point x="75" y="725" type="line"/>
      <point x="132" y="800" type="line"/>
      <point x="337" y="800" type="line"/>
      <point x="337" y="121" type="line"/>
      <point x="262" y="65" type="line"/>
      <point x="262" y="0" type="line"/>
      <point x="524" y="0" type="line"/>
    </contour>
  </outline>
</glyph>
<glyph name="U" format="1">
  <advance width="813"/>
  <unicode hex="0055"/>
  <outline>
    <contour>
      <point x="228" y="799" type="line"/>
      <point x="303" y="855" type="line"/>
      <point x="303" y="920" type="line"/>
      <point x="40" y="920" type="line"/>
      <point x="40" y="855" type="line"/>
      <point x="115" y="799" type="line"/>
      <point x="115" y="260" type="line" smooth="yes"/>
      <point x="115" y="145"/>
      <point x="188" y="-13"/>
      <point x="387" y="-13" type="curve" smooth="yes"/>
      <point x="470" y="-13"/>
      <point x="549" y="39"/>
      <point x="574" y="73" type="curve"/>
      <point x="574" y="73"/>
      <point x="603" y="0"/>
      <point x="677" y="0" type="curve" smooth="yes"/>
      <point x="745" y="0"/>
      <point x="793" y="54"/>
      <point x="793" y="121" type="curve" smooth="yes"/>
      <point x="793" y="147"/>
      <point x="788" y="161"/>
      <point x="788" y="161" type="curve"/>
      <point x="739" y="143" type="line"/>
      <point x="739" y="143"/>
      <point x="736" y="96"/>
      <point x="706" y="96" type="curve" smooth="yes"/>
      <point x="684" y="96"/>
      <point x="680" y="130"/>
      <point x="680" y="161" type="curve" smooth="yes"/>
      <point x="680" y="799" type="line"/>
      <point x="755" y="855" type="line"/>
      <point x="755" y="920" type="line"/>
      <point x="492" y="920" type="line"/>
      <point x="492" y="855" type="line"/>
      <point x="567" y="799" type="line"/>
      <point x="567" y="274" type="line" smooth="yes"/>
      <point x="567" y="172"/>
      <point x="481" y="107"/>
      <point x="393" y="107" type="curve" smooth="yes"/>
      <point x="288" y="107"/>
      <point x="228" y="168"/>
      <point x="228" y="272" type="curve" smooth="yes"/>
    </contour>
  </outline>
</glyph>
<glyph name="V" format="1">
  <advance width="783"/>
  <unicode hex="0056"/>
  <outline>
    <contour>
      <point x="340" y="0" type="line"/>
      <point x="441" y="0" type="line"/>
      <point x="708" y="799" type="line"/>
      <point x="783" y="855" type="line"/>
      <point x="783" y="920" type="line"/>
      <point x="521" y="920" type="line"/>
      <point x="521" y="855" type="line"/>
      <point x="590" y="803" type="line"/>
      <point x="399" y="202" type="line"/>
      <point x="199" y="808" type="line"/>
      <point x="262" y="855" type="line"/>
      <point x="262" y="920" type="line"/>
      <point x="0" y="920" type="line"/>
      <point x="0" y="855" type="line"/>
      <point x="67" y="805" type="line"/>
    </contour>
  </outline>
</glyph>
<glyph name="W" format="1">
  <advance width="1102"/>
  <unicode hex="0057"/>
  <outline>
    <contour>
      <point x="689" y="0" type="line"/>
      <point x="790" y="0" type="line"/>
      <point x="1017" y="799" type="line"/>
      <point x="1092" y="855" type="line"/>
      <point x="1092" y="920" type="line"/>
      <point x="830" y="920" type="line"/>
      <point x="830" y="855" type="line"/>
      <point x="899" y="803" type="line"/>
      <point x="752" y="245" type="line"/>
      <point x="620" y="811" type="line"/>
      <point x="464" y="812" type="line"/>
      <point x="357" y="259" type="line"/>
      <point x="209" y="808" type="line"/>
      <point x="272" y="855" type="line"/>
      <point x="272" y="920" type="line"/>
      <point x="10" y="920" type="line"/>
      <point x="10" y="855" type="line"/>
      <point x="77" y="805" type="line"/>
      <point x="310" y="0" type="line"/>
      <point x="411" y="0" type="line"/>
      <point x="540" y="623" type="line"/>
    </contour>
  </outline>
</glyph>
<glyph name="X" format="1">
  <advance width="796"/>
  <unicode hex="0058"/>
  <outline>
    <contour>
      <point x="548" y="103" type="line"/>
      <point x="487" y="64" type="line"/>
      <point x="487" y="0" type="line"/>
      <point x="763" y="0" type="line"/>
      <point x="763" y="65" type="line"/>
      <point x="694" y="110" type="line"/>
      <point x="454" y="450" type="line"/>
      <point x="691" y="797" type="line"/>
      <point x="763" y="844" type="line"/>
      <point x="763" y="908" type="line"/>
      <point x="487" y="908" type="line"/>
      <point x="487" y="843" type="line"/>
      <point x="551" y="805" type="line"/>
      <point x="494" y="717"/>
      <point x="442" y="639"/>
      <point x="386" y="553" type="curve"/>
      <point x="328" y="647"/>
      <point x="283" y="714"/>
      <point x="227" y="805" type="curve"/>
      <point x="287" y="843" type="line"/>
      <point x="287" y="908" type="line"/>
      <point x="11" y="908" type="line"/>
      <point x="11" y="843" type="line"/>
      <point x="85" y="796" type="line"/>
      <point x="317" y="454" type="line"/>
      <point x="84" y="111" type="line"/>
      <point x="12" y="64" type="line"/>
      <point x="12" y="0" type="line"/>
      <point x="287" y="0" type="line"/>
      <point x="287" y="65" type="line"/>
      <point x="227" y="103" type="line"/>
      <point x="385" y="354" type="line"/>
    </contour>
  </outline>
</glyph>
<glyph name="Y" format="1">
  <advance width="748"/>
  <unicode hex="0059"/>
  <outline>
    <contour>
      <point x="426" y="364" type="line"/>
      <point x="506" y="511"/>
      <point x="588" y="653"/>
      <point x="668" y="798" type="curve"/>
      <point x="740" y="844" type="line"/>
      <point x="740" y="908" type="line"/>
      <point x="464" y="908" type="line"/>
      <point x="464" y="843" type="line"/>
      <point x="530" y="803" type="line"/>
      <point x="365" y="492" type="line"/>
      <point x="202" y="804" type="line"/>
      <point x="263" y="843" type="line"/>
      <point x="263" y="908" type="line"/>
      <point x="-13" y="908" type="line"/>
      <point x="-13" y="843" type="line"/>
      <point x="60" y="797" type="line"/>
      <point x="302" y="364" type="line"/>
      <point x="302" y="113" type="line"/>
      <point x="226" y="65" type="line"/>
      <point x="226" y="0" type="line"/>
      <point x="500" y="0" type="line"/>
      <point x="500" y="65" type="line"/>
      <point x="426" y="113" type="line"/>
    </contour>
  </outline>
</glyph>
<glyph name="Z" format="1">
  <advance width="685"/>
  <unicode hex="005A"/>
  <outline>
    <contour>
      <point x="13" y="42" type="line"/>
      <point x="493" y="800" type="line"/>
      <point x="164" y="800" type="line"/>
      <point x="107" y="725" type="line"/>
      <point x="42" y="725" type="line"/>
      <point x="71" y="920" type="line"/>
      <point x="658" y="920" type="line"/>
      <point x="658" y="860" type="line"/>
      <point x="205" y="136" type="line"/>
      <point x="565" y="136" type="line"/>
      <point x="616" y="136"/>
      <point x="614" y="195"/>
      <point x="614" y="195" type="curve"/>
      <point x="664" y="211" type="line"/>
      <point x="664" y="211"/>
      <point x="677" y="187"/>
      <point x="677" y="152" type="curve" smooth="yes"/>
      <point x="677" y="80"/>
      <point x="610" y="-13"/>
      <point x="492" y="-13" type="curve" smooth="yes"/>
      <point x="323" y="-13"/>
      <point x="148" y="62"/>
      <point x="89" y="-13" type="curve"/>
    </contour>
  </outline>
</glyph>
<glyph name="backslash" format="1">
  <advance width="391"/>
  <unicode hex="005C"/>
  <outline>
    <contour>
      <point x="335" y="-132" type="line"/>
      <point x="391" y="-107" type="line"/>
      <point x="56" y="645" type="line"/>
      <point x="0" y="620" type="line"/>
    </contour>
  </outline>
</glyph>
<glyph name="grave" format="1">
  <advance width="1000"/>
  <unicode hex="0060"/>
  <outline>
    <contour>
      <point x="724" y="618" type="line"/>
      <point x="528" y="686"/>
      <point x="515" y="806"/>
      <point x="515" y="806" type="curve"/>
      <point x="451" y="806" type="line"/>
      <point x="407" y="806"/>
      <point x="382" y="783"/>
      <point x="382" y="749" type="curve" smooth="yes"/>
      <point x="382" y="696"/>
      <point x="464" y="604"/>
      <point x="671" y="548" type="curve"/>
    </contour>
  </outline>
</glyph>
<glyph name="a" format="1">
  <advance width="599"/>
  <unicode hex="0061"/>
  <outline>
    <contour>
      <point x="299" y="539" type="move" name="top"/>
    </contour>
    <contour>
      <point x="128" y="296" type="line"/>
      <point x="128" y="325"/>
      <point x="141" y="385"/>
      <point x="245" y="385" type="curve" smooth="yes"/>
      <point x="309" y="385"/>
      <point x="363" y="355"/>
      <point x="363" y="314" type="curve"/>
      <point x="363" y="289" type="line"/>
      <point x="204" y="289" type="line"/>
      <point x="131" y="289"/>
      <point x="40" y="240"/>
      <point x="40" y="148" type="curve" smooth="yes"/>
      <point x="40" y="31"/>
      <point x="145" y="-12"/>
      <point x="227" y="-12" type="curve"/>
      <point x="323" y="-12"/>
      <point x="401" y="67"/>
      <point x="401" y="67" type="curve"/>
      <point x="401" y="67"/>
      <point x="431" y="0"/>
      <point x="501" y="0" type="curve" smooth="yes"/>
      <point x="576" y="0"/>
      <point x="615" y="75"/>
      <point x="592" y="161" type="curve"/>
      <point x="543" y="142" type="line"/>
      <point x="543" y="142"/>
      <point x="541" y="96"/>
      <point x="510" y="96" type="curve" smooth="yes"/>
      <point x="488" y="96"/>
      <point x="483" y="133"/>
      <point x="483" y="185" type="curve"/>
      <point x="483" y="338" type="line"/>
      <point x="483" y="417"/>
      <point x="416" y="499"/>
      <point x="266" y="499" type="curve" smooth="yes"/>
      <point x="151" y="499"/>
      <point x="61" y="416"/>
      <point x="61" y="350" type="curve" smooth="yes"/>
      <point x="61" y="307"/>
      <point x="79" y="277"/>
      <point x="79" y="277" type="curve"/>
    </contour>
    <contour>
      <point x="371" y="167" type="line"/>
      <point x="371" y="147"/>
      <point x="305" y="98"/>
      <point x="235" y="98" type="curve" smooth="yes"/>
      <point x="190" y="98"/>
      <point x="156" y="117"/>
      <point x="156" y="146" type="curve" smooth="yes"/>
      <point x="156" y="176"/>
      <point x="168" y="206"/>
      <point x="228" y="214" type="curve" smooth="yes"/>
      <point x="371" y="233" type="line"/>
    </contour>
  </outline>
</glyph>
<glyph name="b" format="1">
  <advance width="690"/>
  <unicode hex="0062"/>
  <outline>
    <contour>
      <point x="-40" y="920" type="line"/>
      <point x="-40" y="800" type="line"/>
      <point x="100" y="800" type="line"/>
      <point x="100" y="132" type="line"/>
      <point x="54" y="0" type="line"/>
      <point x="104" y="0" type="line"/>
      <point x="206" y="80" type="line"/>
      <point x="206" y="80"/>
      <point x="266" y="-13"/>
      <point x="403" y="-13" type="curve" smooth="yes"/>
      <point x="534" y="-13"/>
      <point x="670" y="83"/>
      <point x="670" y="245" type="curve" smooth="yes"/>
      <point x="670" y="389"/>
      <point x="537" y="498"/>
      <point x="397" y="498" type="curve"/>
      <point x="263" y="498"/>
      <point x="213" y="411"/>
      <point x="213" y="411" type="curve"/>
      <point x="213" y="920" type="line"/>
    </contour>
    <contour>
      <point x="386" y="378" type="curve" smooth="yes"/>
      <point x="489" y="378"/>
      <point x="549" y="311"/>
      <point x="549" y="245" type="curve" smooth="yes"/>
      <point x="549" y="177"/>
      <point x="489" y="107"/>
      <point x="387" y="107" type="curve" smooth="yes"/>
      <point x="308" y="107"/>
      <point x="219" y="158"/>
      <point x="219" y="244" type="curve" smooth="yes"/>
      <point x="219" y="313"/>
      <point x="294" y="378"/>
    </contour>
  </outline>
</glyph>
<glyph name="c" format="1">
  <advance width="607"/>
  <unicode hex="0063"/>
  <outline>
    <contour>
      <point x="40" y="244" type="curve" smooth="yes"/>
      <point x="40" y="91"/>
      <point x="172" y="-13"/>
      <point x="328" y="-13" type="curve" smooth="yes"/>
      <point x="464" y="-13"/>
      <point x="562" y="89"/>
      <point x="562" y="166" type="curve"/>
      <point x="562" y="201"/>
      <point x="550" y="218"/>
      <point x="550" y="218" type="curve"/>
      <point x="502" y="198" type="line"/>
      <point x="502" y="153"/>
      <point x="429" y="104"/>
      <point x="329" y="104" type="curve" smooth="yes"/>
      <point x="243" y="104"/>
      <point x="164" y="164"/>
      <point x="164" y="243" type="curve" smooth="yes"/>
      <point x="164" y="334"/>
      <point x="251" y="381"/>
      <point x="323" y="381" type="curve" smooth="yes"/>
      <point x="427" y="381"/>
      <point x="485" y="308"/>
      <point x="485" y="269" type="curve"/>
      <point x="567" y="269" type="line"/>
      <point x="567" y="492" type="line"/>
      <point x="489" y="492" type="line"/>
      <point x="468" y="432" type="line"/>
      <point x="468" y="432"/>
      <point x="417" y="497"/>
      <point x="319" y="497" type="curve" smooth="yes"/>
      <point x="183" y="497"/>
      <point x="40" y="391"/>
    </contour>
  </outline>
</glyph>
<glyph name="d" format="1">
  <advance width="705"/>
  <unicode hex="0064"/>
  <outline>
    <contour>
      <point x="295" y="498" type="curve" smooth="yes"/>
      <point x="169" y="498"/>
      <point x="20" y="405"/>
      <point x="20" y="242" type="curve" smooth="yes"/>
      <point x="20" y="105"/>
      <point x="136" y="-13"/>
      <point x="292" y="-13" type="curve" smooth="yes"/>
      <point x="428" y="-13"/>
      <point x="485" y="81"/>
      <point x="485" y="81" type="curve"/>
      <point x="485" y="81"/>
      <point x="514" y="0"/>
      <point x="588" y="0" type="curve" smooth="yes"/>
      <point x="676" y="0"/>
      <point x="720" y="87"/>
      <point x="699" y="161" type="curve"/>
      <point x="650" y="143" type="line"/>
      <point x="650" y="143"/>
      <point x="647" y="96"/>
      <point x="617" y="96" type="curve" smooth="yes"/>
      <point x="590" y="96"/>
      <point x="590" y="151"/>
      <point x="590" y="182" type="curve" smooth="yes"/>
      <point x="590" y="920" type="line"/>
      <point x="317" y="920" type="line"/>
      <point x="317" y="800" type="line"/>
      <point x="478" y="800" type="line"/>
      <point x="478" y="412" type="line"/>
      <point x="478" y="412"/>
      <point x="428" y="498"/>
    </contour>
    <contour>
      <point x="306" y="378" type="curve" smooth="yes"/>
      <point x="405" y="378"/>
      <point x="472" y="309"/>
      <point x="472" y="240" type="curve" smooth="yes"/>
      <point x="472" y="159"/>
      <point x="380" y="107"/>
      <point x="306" y="107" type="curve" smooth="yes"/>
      <point x="220" y="107"/>
      <point x="142" y="162"/>
      <point x="142" y="242" type="curve" smooth="yes"/>
      <point x="142" y="328"/>
      <point x="220" y="378"/>
    </contour>
  </outline>
</glyph>
<glyph name="e" format="1">
  <advance width="562"/>
  <unicode hex="0065"/>
  <outline>
    <contour>
      <point x="482" y="198" type="line"/>
      <point x="482" y="158"/>
      <point x="418" y="104"/>
      <point x="310" y="104" type="curve" smooth="yes"/>
      <point x="212" y="104"/>
      <point x="144" y="176"/>
      <point x="144" y="241" type="curve"/>
      <point x="527" y="241" type="line"/>
      <point x="527" y="241"/>
      <point x="537" y="254"/>
      <point x="538" y="301" type="curve"/>
      <point x="538" y="389"/>
      <point x="441" y="498"/>
      <point x="302" y="498" type="curve" smooth="yes"/>
      <point x="156" y="498"/>
      <point x="20" y="384"/>
      <point x="20" y="241" type="curve" smooth="yes"/>
      <point x="20" y="101"/>
      <point x="145" y="-13"/>
      <point x="303" y="-13" type="curve" smooth="yes"/>
      <point x="445" y="-13"/>
      <point x="542" y="88"/>
      <point x="542" y="169" type="curve"/>
      <point x="542" y="197"/>
      <point x="530" y="218"/>
      <point x="530" y="218" type="curve"/>
    </contour>
    <contour>
      <point x="161" y="301" type="line"/>
      <point x="161" y="301"/>
      <point x="195" y="380"/>
      <point x="302" y="380" type="curve" smooth="yes"/>
      <point x="407" y="380"/>
      <point x="419" y="301"/>
      <point x="419" y="301" type="curve"/>
    </contour>
  </outline>
</glyph>
<glyph name="f" format="1">
  <advance width="437"/>
  <unicode hex="0066"/>
  <outline>
    <contour>
      <point x="237" y="126" type="line"/>
      <point x="310" y="64" type="line"/>
      <point x="310" y="0" type="line"/>
      <point x="50" y="0" type="line"/>
      <point x="50" y="64" type="line"/>
      <point x="124" y="126" type="line"/>
      <point x="124" y="370" type="line"/>
      <point x="40" y="370" type="line"/>
      <point x="89" y="492" type="line"/>
      <point x="124" y="492" type="line"/>
      <point x="124" y="723" type="line"/>
      <point x="124" y="852"/>
      <point x="177" y="927"/>
      <point x="285" y="927" type="curve" smooth="yes"/>
      <point x="370" y="927"/>
      <point x="437" y="855"/>
      <point x="437" y="775" type="curve" smooth="yes"/>
      <point x="437" y="741"/>
      <point x="425" y="718"/>
      <point x="425" y="718" type="curve"/>
      <point x="375" y="734" type="line"/>
      <point x="375" y="734"/>
      <point x="384" y="820"/>
      <point x="302" y="820" type="curve" smooth="yes"/>
      <point x="273" y="820"/>
      <point x="236" y="798"/>
      <point x="236" y="726" type="curve"/>
      <point x="236" y="492" type="line"/>
      <point x="425" y="492" type="line"/>
      <point x="377" y="372" type="line"/>
      <point x="237" y="372" type="line"/>
    </contour>
  </outline>
</glyph>
<glyph name="g" format="1">
  <advance width="602"/>
  <unicode hex="0067"/>
  <outline>
    <contour>
      <point x="196" y="77" type="line" smooth="yes"/>
      <point x="157" y="79"/>
      <point x="128" y="93"/>
      <point x="128" y="123" type="curve" smooth="yes"/>
      <point x="128" y="150"/>
      <point x="151" y="157"/>
      <point x="151" y="157" type="curve"/>
      <point x="151" y="157"/>
      <point x="217" y="104"/>
      <point x="316" y="104" type="curve"/>
      <point x="477" y="104"/>
      <point x="543" y="205"/>
      <point x="543" y="297" type="curve" smooth="yes"/>
      <point x="543" y="321"/>
      <point x="533" y="351"/>
      <point x="524" y="372" type="curve"/>
      <point x="552" y="394"/>
      <point x="568" y="447"/>
      <point x="559" y="497" type="curve"/>
      <point x="508" y="485" type="line"/>
      <point x="508" y="485"/>
      <point x="501" y="444"/>
      <point x="471" y="444" type="curve"/>
      <point x="432" y="474"/>
      <point x="375" y="498"/>
      <point x="315" y="498" type="curve" smooth="yes"/>
      <point x="181" y="498"/>
      <point x="86" y="408"/>
      <point x="86" y="297" type="curve" smooth="yes"/>
      <point x="86" y="262"/>
      <point x="96" y="232"/>
      <point x="114" y="204" type="curve"/>
      <point x="89" y="199"/>
      <point x="50" y="168"/>
      <point x="50" y="113" type="curve" smooth="yes"/>
      <point x="50" y="60"/>
      <point x="84" y="23"/>
      <point x="126" y="1" type="curve"/>
      <point x="126" y="1"/>
      <point x="59" y="-37"/>
      <point x="59" y="-119" type="curve" smooth="yes"/>
      <point x="59" y="-246"/>
      <point x="175" y="-355"/>
      <point x="327" y="-355" type="curve" smooth="yes"/>
      <point x="483" y="-355"/>
      <point x="602" y="-246"/>
      <point x="602" y="-119" type="curve"/>
      <point x="602" y="-2"/>
      <point x="506" y="60"/>
      <point x="394" y="66" type="curve" smooth="yes"/>
    </contour>
    <contour>
      <point x="333" y="-13" type="line"/>
      <point x="419" y="-13"/>
      <point x="486" y="-45"/>
      <point x="486" y="-119" type="curve" smooth="yes"/>
      <point x="486" y="-185"/>
      <point x="407" y="-236"/>
      <point x="331" y="-236" type="curve" smooth="yes"/>
      <point x="250" y="-236"/>
      <point x="175" y="-180"/>
      <point x="175" y="-119" type="curve" smooth="yes"/>
      <point x="175" y="-45"/>
      <point x="213" y="-13"/>
      <point x="213" y="-13" type="curve"/>
    </contour>
    <contour>
      <point x="206" y="297" type="curve" smooth="yes"/>
      <point x="206" y="343"/>
      <point x="259" y="379"/>
      <point x="315" y="379" type="curve" smooth="yes"/>
      <point x="373" y="379"/>
      <point x="425" y="343"/>
      <point x="425" y="297" type="curve" smooth="yes"/>
      <point x="425" y="252"/>
      <point x="373" y="218"/>
      <point x="315" y="218" type="curve" smooth="yes"/>
      <point x="259" y="218"/>
      <point x="206" y="252"/>
    </contour>
  </outline>
</glyph>
<glyph name="h" format="1">
  <advance width="692"/>
  <unicode hex="0068"/>
  <outline>
    <contour>
      <point x="-20" y="799" type="line"/>
      <point x="129" y="799" type="line"/>
      <point x="129" y="127" type="line"/>
      <point x="54" y="64" type="line"/>
      <point x="54" y="0" type="line"/>
      <point x="314" y="0" type="line"/>
      <point x="314" y="64" type="line"/>
      <point x="241" y="126" type="line"/>
      <point x="241" y="327" type="line"/>
      <point x="241" y="327"/>
      <point x="289" y="375"/>
      <point x="362" y="375" type="curve" smooth="yes"/>
      <point x="414" y="375"/>
      <point x="467" y="350"/>
      <point x="467" y="291" type="curve"/>
      <point x="467" y="127" type="line"/>
      <point x="392" y="64" type="line"/>
      <point x="392" y="0" type="line"/>
      <point x="652" y="0" type="line"/>
      <point x="652" y="64" type="line"/>
      <point x="579" y="126" type="line"/>
      <point x="579" y="303" type="line"/>
      <point x="579" y="410"/>
      <point x="535" y="498"/>
      <point x="395" y="498" type="curve"/>
      <point x="291" y="495"/>
      <point x="240" y="412"/>
      <point x="240" y="412" type="curve"/>
      <point x="241" y="920" type="line"/>
      <point x="-20" y="920" type="line"/>
    </contour>
  </outline>
</glyph>
<glyph name="i" format="1">
  <advance width="350"/>
  <unicode hex="0069"/>
  <outline>
    <contour>
      <point x="105" y="673" type="curve" smooth="yes"/>
      <point x="105" y="640"/>
      <point x="140" y="606"/>
      <point x="180" y="606" type="curve" smooth="yes"/>
      <point x="220" y="606"/>
      <point x="255" y="640"/>
      <point x="255" y="673" type="curve" smooth="yes"/>
      <point x="255" y="705"/>
      <point x="220" y="739"/>
      <point x="180" y="739" type="curve" smooth="yes"/>
      <point x="140" y="739"/>
      <point x="105" y="705"/>
    </contour>
    <contour>
      <point x="256" y="126" type="line"/>
      <point x="330" y="64" type="line"/>
      <point x="330" y="0" type="line"/>
      <point x="63" y="0" type="line"/>
      <point x="63" y="64" type="line"/>
      <point x="137" y="126" type="line"/>
      <point x="137" y="372" type="line"/>
      <point x="40" y="372" type="line"/>
      <point x="40" y="492" type="line"/>
      <point x="256" y="492" type="line"/>
    </contour>
  </outline>
</glyph>
<glyph name="j" format="1">
  <advance width="280"/>
  <unicode hex="006A"/>
  <outline>
    <contour>
      <point x="234" y="-131" type="line" smooth="yes"/>
      <point x="234" y="-142"/>
      <point x="233" y="-311"/>
      <point x="73" y="-311" type="curve" smooth="yes"/>
      <point x="-24" y="-311"/>
      <point x="-111" y="-209"/>
      <point x="-68" y="-102" type="curve"/>
      <point x="-17" y="-118" type="line"/>
      <point x="-17" y="-118"/>
      <point x="-25" y="-204"/>
      <point x="53" y="-204" type="curve" smooth="yes"/>
      <point x="87" y="-204"/>
      <point x="122" y="-181"/>
      <point x="122" y="-113" type="curve" smooth="yes"/>
      <point x="122" y="372" type="line"/>
      <point x="25" y="372" type="line"/>
      <point x="25" y="492" type="line"/>
      <point x="234" y="492" type="line"/>
    </contour>
    <contour>
      <point x="173" y="589" type="line"/>
      <point x="151" y="589" type="line"/>
      <point x="67" y="673" type="line"/>
      <point x="67" y="695" type="line"/>
      <point x="151" y="778" type="line"/>
      <point x="173" y="778" type="line"/>
      <point x="257" y="695" type="line"/>
      <point x="257" y="673" type="line"/>
    </contour>
  </outline>
</glyph>
<glyph name="k" format="1">
  <advance width="615"/>
  <unicode hex="006B"/>
  <outline>
    <contour>
      <point x="314" y="0" type="line"/>
      <point x="54" y="0" type="line"/>
      <point x="54" y="64" type="line"/>
      <point x="129" y="128" type="line"/>
      <point x="129" y="799" type="line"/>
      <point x="-20" y="799" type="line"/>
      <point x="-20" y="920" type="line"/>
      <point x="241" y="920" type="line"/>
      <point x="241" y="347" type="line"/>
      <point x="319" y="403" type="line"/>
      <point x="282" y="428" type="line"/>
      <point x="282" y="492" type="line"/>
      <point x="549" y="492" type="line"/>
      <point x="549" y="429" type="line"/>
      <point x="331" y="302" type="line"/>
      <point x="433" y="160" type="line" smooth="yes"/>
      <point x="460" y="123"/>
      <point x="477" y="106"/>
      <point x="496" y="106" type="curve"/>
      <point x="543" y="106"/>
      <point x="540" y="167"/>
      <point x="540" y="167" type="curve"/>
      <point x="589" y="186" type="line"/>
      <point x="589" y="186"/>
      <point x="595" y="168"/>
      <point x="595" y="140" type="curve"/>
      <point x="595" y="66"/>
      <point x="558" y="-13"/>
      <point x="473" y="-13" type="curve"/>
      <point x="434" y="-13"/>
      <point x="405" y="10"/>
      <point x="364" y="66" type="curve" smooth="yes"/>
      <point x="241" y="234" type="line"/>
      <point x="241" y="127" type="line"/>
      <point x="314" y="64" type="line"/>
    </contour>
  </outline>
</glyph>
<glyph name="l" format="1">
  <advance width="310"/>
  <unicode hex="006C"/>
  <outline>
    <contour>
      <point x="217" y="127" type="line"/>
      <point x="290" y="64" type="line"/>
      <point x="290" y="0" type="line"/>
      <point x="30" y="0" type="line"/>
      <point x="30" y="64" type="line"/>
      <point x="104" y="126" type="line"/>
      <point x="104" y="800" type="line"/>
      <point x="-40" y="800" type="line"/>
      <point x="-40" y="920" type="line"/>
      <point x="217" y="920" type="line"/>
    </contour>
  </outline>
</glyph>
<glyph name="m" format="1">
  <advance width="1031"/>
  <unicode hex="006D"/>
  <outline>
    <contour>
      <point x="40" y="372" type="line"/>
      <point x="137" y="372" type="line"/>
      <point x="137" y="126" type="line"/>
      <point x="63" y="64" type="line"/>
      <point x="63" y="0" type="line"/>
      <point x="331" y="0" type="line"/>
      <point x="331" y="64" type="line"/>
      <point x="256" y="126" type="line"/>
      <point x="256" y="327" type="line"/>
      <point x="256" y="327"/>
      <point x="301" y="375"/>
      <point x="374" y="375" type="curve"/>
      <point x="427" y="375"/>
      <point x="478" y="350"/>
      <point x="478" y="291" type="curve"/>
      <point x="478" y="126" type="line"/>
      <point x="404" y="64" type="line"/>
      <point x="404" y="0" type="line"/>
      <point x="671" y="0" type="line"/>
      <point x="671" y="64" type="line"/>
      <point x="597" y="126" type="line"/>
      <point x="597" y="326" type="line"/>
      <point x="597" y="326"/>
      <point x="637" y="375"/>
      <point x="716" y="375" type="curve"/>
      <point x="769" y="375"/>
      <point x="818" y="350"/>
      <point x="818" y="291" type="curve"/>
      <point x="818" y="125" type="line"/>
      <point x="744" y="64" type="line"/>
      <point x="744" y="0" type="line"/>
      <point x="1011" y="0" type="line"/>
      <point x="1011" y="64" type="line"/>
      <point x="937" y="126" type="line"/>
      <point x="937" y="303" type="line"/>
      <point x="937" y="409"/>
      <point x="869" y="498"/>
      <point x="729" y="498" type="curve"/>
      <point x="616" y="498"/>
      <point x="558" y="388"/>
      <point x="558" y="388" type="curve"/>
      <point x="558" y="388"/>
      <point x="534" y="498"/>
      <point x="394" y="498" type="curve"/>
      <point x="300" y="498"/>
      <point x="240" y="411"/>
      <point x="240" y="411" type="curve"/>
      <point x="214" y="492" type="line"/>
      <point x="40" y="492" type="line"/>
    </contour>
  </outline>
</glyph>
<glyph name="o" format="1">
  <advance width="604"/>
  <unicode hex="006F"/>
  <outline>
    <contour>
      <point x="302" y="-13" type="curve"/>
      <point x="442" y="-13"/>
      <point x="584" y="95"/>
      <point x="584" y="242" type="curve" smooth="yes"/>
      <point x="584" y="392"/>
      <point x="438" y="498"/>
      <point x="302" y="498" type="curve" smooth="yes"/>
      <point x="165" y="498"/>
      <point x="20" y="392"/>
      <point x="20" y="243" type="curve" smooth="yes"/>
      <point x="20" y="93"/>
      <point x="163" y="-13"/>
    </contour>
    <contour>
      <point x="302" y="107" type="curve"/>
      <point x="224" y="107"/>
      <point x="142" y="157"/>
      <point x="142" y="242" type="curve" smooth="yes"/>
      <point x="142" y="326"/>
      <point x="222" y="378"/>
      <point x="302" y="378" type="curve" smooth="yes"/>
      <point x="380" y="378"/>
      <point x="462" y="328"/>
      <point x="462" y="242" type="curve" smooth="yes"/>
      <point x="462" y="158"/>
      <point x="379" y="107"/>
    </contour>
  </outline>
</glyph>
<glyph name="p" format="1">
  <advance width="745"/>
  <unicode hex="0070"/>
  <outline>
    <contour>
      <point x="154" y="-186" type="line"/>
      <point x="80" y="-249" type="line"/>
      <point x="80" y="-312" type="line"/>
      <point x="340" y="-312" type="line"/>
      <point x="340" y="-249" type="line"/>
      <point x="267" y="-185" type="line"/>
      <point x="267" y="72" type="line"/>
      <point x="267" y="72"/>
      <point x="319" y="-13"/>
      <point x="450" y="-13" type="curve"/>
      <point x="597" y="-13"/>
      <point x="725" y="93"/>
      <point x="725" y="243" type="curve" smooth="yes"/>
      <point x="725" y="392"/>
      <point x="601" y="498"/>
      <point x="450" y="498" type="curve"/>
      <point x="320" y="498"/>
      <point x="260" y="404"/>
      <point x="260" y="404" type="curve"/>
      <point x="231" y="492" type="line"/>
      <point x="10" y="492" type="line"/>
      <point x="10" y="372" type="line"/>
      <point x="154" y="372" type="line"/>
    </contour>
    <contour>
      <point x="430" y="107" type="curve" smooth="yes"/>
      <point x="359" y="107"/>
      <point x="272" y="164"/>
      <point x="272" y="241" type="curve" smooth="yes"/>
      <point x="272" y="315"/>
      <point x="354" y="378"/>
      <point x="430" y="378" type="curve" smooth="yes"/>
      <point x="526" y="378"/>
      <point x="603" y="325"/>
      <point x="603" y="241" type="curve" smooth="yes"/>
      <point x="603" y="154"/>
      <point x="526" y="107"/>
    </contour>
  </outline>
</glyph>
<glyph name="q" format="1">
  <advance width="654"/>
  <unicode hex="0071"/>
  <outline>
    <contour>
      <point x="580" y="492" type="line"/>
      <point x="530" y="492" type="line"/>
      <point x="481" y="423" type="line"/>
      <point x="481" y="423"/>
      <point x="391" y="498"/>
      <point x="295" y="498" type="curve" smooth="yes"/>
      <point x="146" y="498"/>
      <point x="20" y="397"/>
      <point x="20" y="240" type="curve" smooth="yes"/>
      <point x="20" y="90"/>
      <point x="136" y="-13"/>
      <point x="295" y="-13" type="curve"/>
      <point x="384" y="-13"/>
      <point x="467" y="46"/>
      <point x="467" y="46" type="curve"/>
      <point x="467" y="-185" type="line"/>
      <point x="394" y="-249" type="line"/>
      <point x="394" y="-312" type="line"/>
      <point x="654" y="-312" type="line"/>
      <point x="654" y="-249" type="line"/>
      <point x="580" y="-186" type="line"/>
    </contour>
    <contour>
      <point x="304" y="107" type="curve" smooth="yes"/>
      <point x="217" y="107"/>
      <point x="142" y="167"/>
      <point x="142" y="241" type="curve" smooth="yes"/>
      <point x="142" y="309"/>
      <point x="201" y="377"/>
      <point x="304" y="377" type="curve" smooth="yes"/>
      <point x="392" y="377"/>
      <point x="462" y="319"/>
      <point x="462" y="241" type="curve" smooth="yes"/>
      <point x="462" y="165"/>
      <point x="394" y="107"/>
    </contour>
  </outline>
</glyph>
<glyph name="r" format="1">
  <advance width="544"/>
  <unicode hex="0072"/>
  <outline>
    <contour>
      <point x="256" y="327" type="line"/>
      <point x="256" y="136" type="line"/>
      <point x="329" y="64" type="line"/>
      <point x="329" y="0" type="line"/>
      <point x="62" y="0" type="line"/>
      <point x="62" y="64" type="line"/>
      <point x="137" y="134" type="line"/>
      <point x="137" y="372" type="line"/>
      <point x="40" y="372" type="line"/>
      <point x="40" y="492" type="line"/>
      <point x="214" y="492" type="line"/>
      <point x="240" y="411" type="line"/>
      <point x="278" y="497" type="line"/>
      <point x="278" y="497"/>
      <point x="346" y="466"/>
      <point x="398" y="466" type="curve" smooth="yes"/>
      <point x="461" y="466"/>
      <point x="524" y="500"/>
      <point x="524" y="500" type="curve"/>
      <point x="491" y="384" type="line"/>
      <point x="443" y="362"/>
      <point x="401" y="354"/>
      <point x="369" y="354" type="curve" smooth="yes"/>
      <point x="322" y="354"/>
      <point x="281" y="380"/>
      <point x="281" y="380" type="curve"/>
    </contour>
  </outline>
</glyph>
<glyph name="s" format="1">
  <advance width="453"/>
  <unicode hex="0073"/>
  <outline>
    <contour>
      <point x="241" y="-14" type="move" name="top"/>
    </contour>
    <contour>
      <point x="194" y="498" type="curve" smooth="yes"/>
      <point x="266" y="498"/>
      <point x="315" y="448"/>
      <point x="315" y="448" type="curve"/>
      <point x="332" y="492" type="line"/>
      <point x="411" y="492" type="line"/>
      <point x="411" y="289" type="line"/>
      <point x="341" y="289" type="line"/>
      <point x="341" y="343"/>
      <point x="288" y="386"/>
      <point x="222" y="386" type="curve" smooth="yes"/>
      <point x="174" y="386"/>
      <point x="140" y="373"/>
      <point x="140" y="339" type="curve"/>
      <point x="140" y="312"/>
      <point x="167" y="305"/>
      <point x="167" y="305" type="curve"/>
      <point x="321" y="264" type="line" smooth="yes"/>
      <point x="405" y="242"/>
      <point x="433" y="191"/>
      <point x="433" y="142" type="curve" smooth="yes"/>
      <point x="433" y="52"/>
      <point x="355" y="-13"/>
      <point x="232" y="-13" type="curve" smooth="yes"/>
      <point x="108" y="-13"/>
      <point x="20" y="64"/>
      <point x="20" y="166" type="curve" smooth="yes"/>
      <point x="20" y="207"/>
      <point x="27" y="216"/>
      <point x="27" y="216" type="curve"/>
      <point x="76" y="197" type="line"/>
      <point x="76" y="137"/>
      <point x="138" y="98"/>
      <point x="216" y="98" type="curve" smooth="yes"/>
      <point x="302" y="98"/>
      <point x="315" y="117"/>
      <point x="315" y="141" type="curve"/>
      <point x="315" y="166"/>
      <point x="290" y="173"/>
      <point x="290" y="173" type="curve"/>
      <point x="157" y="210" type="line" smooth="yes"/>
      <point x="73" y="233"/>
      <point x="21" y="280"/>
      <point x="21" y="344" type="curve" smooth="yes"/>
      <point x="21" y="442"/>
      <point x="102" y="498"/>
    </contour>
  </outline>
</glyph>
<glyph name="t" format="1">
  <advance width="438"/>
  <unicode hex="0074"/>
  <outline>
    <contour>
      <point x="69" y="492" type="line"/>
      <point x="104" y="492" type="line"/>
      <point x="104" y="673" type="line"/>
      <point x="216" y="673" type="line"/>
      <point x="216" y="492" type="line"/>
      <point x="405" y="492" type="line"/>
      <point x="356" y="372" type="line"/>
      <point x="216" y="372" type="line"/>
      <point x="216" y="192" type="line"/>
      <point x="216" y="119"/>
      <point x="248" y="95"/>
      <point x="285" y="95" type="curve" smooth="yes"/>
      <point x="345" y="95"/>
      <point x="355" y="144"/>
      <point x="355" y="181" type="curve"/>
      <point x="405" y="197" type="line"/>
      <point x="405" y="197"/>
      <point x="418" y="168"/>
      <point x="418" y="141" type="curve"/>
      <point x="418" y="65"/>
      <point x="354" y="-12"/>
      <point x="268" y="-12" type="curve" smooth="yes"/>
      <point x="147" y="-12"/>
      <point x="104" y="76"/>
      <point x="104" y="184" type="curve"/>
      <point x="104" y="370" type="line"/>
      <point x="20" y="370" type="line"/>
    </contour>
  </outline>
</glyph>
<glyph name="u" format="1">
  <advance width="692"/>
  <unicode hex="0075"/>
  <outline>
    <contour>
      <point x="637" y="143" type="line"/>
      <point x="637" y="143"/>
      <point x="635" y="96"/>
      <point x="604" y="96" type="curve" smooth="yes"/>
      <point x="579" y="96"/>
      <point x="577" y="145"/>
      <point x="577" y="166" type="curve"/>
      <point x="577" y="492" type="line"/>
      <point x="362" y="492" type="line"/>
      <point x="362" y="372" type="line"/>
      <point x="458" y="372" type="line"/>
      <point x="458" y="165" type="line"/>
      <point x="458" y="165"/>
      <point x="420" y="107"/>
      <point x="337" y="107" type="curve"/>
      <point x="284" y="107"/>
      <point x="236" y="134"/>
      <point x="236" y="206" type="curve"/>
      <point x="236" y="492" type="line"/>
      <point x="20" y="492" type="line"/>
      <point x="20" y="372" type="line"/>
      <point x="116" y="372" type="line"/>
      <point x="116" y="181" type="line"/>
      <point x="116" y="73"/>
      <point x="191" y="-13"/>
      <point x="316" y="-13" type="curve"/>
      <point x="414" y="-13"/>
      <point x="473" y="79"/>
      <point x="473" y="79" type="curve"/>
      <point x="473" y="79"/>
      <point x="497" y="0"/>
      <point x="582" y="0" type="curve" smooth="yes"/>
      <point x="671" y="0"/>
      <point x="706" y="101"/>
      <point x="686" y="161" type="curve"/>
    </contour>
  </outline>
</glyph>
<glyph name="v" format="1">
  <advance width="626"/>
  <unicode hex="0076"/>
  <outline>
    <contour>
      <point x="270" y="0" type="line"/>
      <point x="65" y="367" type="line"/>
      <point x="0" y="428" type="line"/>
      <point x="0" y="492" type="line"/>
      <point x="267" y="492" type="line"/>
      <point x="267" y="428" type="line"/>
      <point x="197" y="370" type="line"/>
      <point x="316" y="116" type="line"/>
      <point x="426" y="365" type="line"/>
      <point x="358" y="428" type="line"/>
      <point x="358" y="492" type="line"/>
      <point x="626" y="492" type="line"/>
      <point x="626" y="430" type="line"/>
      <point x="563" y="367" type="line"/>
      <point x="374" y="0" type="line"/>
    </contour>
  </outline>
</glyph>
<glyph name="w" format="1">
  <advance width="878"/>
  <unicode hex="0077"/>
  <outline>
    <contour>
      <point x="296" y="0" type="line"/>
      <point x="85" y="367" type="line"/>
      <point x="20" y="428" type="line"/>
      <point x="20" y="492" type="line"/>
      <point x="215" y="492" type="line"/>
      <point x="215" y="367" type="line"/>
      <point x="347" y="123" type="line"/>
      <point x="400" y="219" type="line"/>
      <point x="317" y="367" type="line"/>
      <point x="252" y="428" type="line"/>
      <point x="252" y="492" type="line"/>
      <point x="519" y="492" type="line"/>
      <point x="519" y="428" type="line"/>
      <point x="457" y="367" type="line"/>
      <point x="563" y="124" type="line"/>
      <point x="658" y="365" type="line"/>
      <point x="590" y="428" type="line"/>
      <point x="590" y="492" type="line"/>
      <point x="858" y="492" type="line"/>
      <point x="858" y="430" type="line"/>
      <point x="795" y="367" type="line"/>
      <point x="600" y="0" type="line"/>
      <point x="526" y="0" type="line"/>
      <point x="456" y="126" type="line"/>
      <point x="400" y="0" type="line"/>
    </contour>
  </outline>
</glyph>
<glyph name="x" format="1">
  <advance width="629"/>
  <unicode hex="0078"/>
  <outline>
    <contour>
      <point x="20" y="63" type="line"/>
      <point x="252" y="244" type="line"/>
      <point x="20" y="428" type="line"/>
      <point x="20" y="492" type="line"/>
      <point x="287" y="492" type="line"/>
      <point x="287" y="428" type="line"/>
      <point x="245" y="387" type="line"/>
      <point x="312" y="303" type="line"/>
      <point x="385" y="386" type="line"/>
      <point x="342" y="428" type="line"/>
      <point x="342" y="492" type="line"/>
      <point x="609" y="492" type="line"/>
      <point x="609" y="430" type="line"/>
      <point x="367" y="248" type="line"/>
      <point x="609" y="62" type="line"/>
      <point x="609" y="0" type="line"/>
      <point x="342" y="0" type="line"/>
      <point x="342" y="64" type="line"/>
      <point x="386" y="107" type="line"/>
      <point x="309" y="188" type="line"/>
      <point x="245" y="105" type="line"/>
      <point x="287" y="64" type="line"/>
      <point x="287" y="0" type="line"/>
      <point x="20" y="0" type="line"/>
    </contour>
  </outline>
</glyph>
<glyph name="y" format="1">
  <advance width="696"/>
  <unicode hex="0079"/>
  <outline>
    <contour>
      <point x="43" y="-119" type="line"/>
      <point x="43" y="-119"/>
      <point x="36" y="-205"/>
      <point x="112" y="-205" type="curve"/>
      <point x="156" y="-205"/>
      <point x="194" y="-182"/>
      <point x="224" y="-131" type="curve" smooth="yes"/>
      <point x="315" y="25" type="line"/>
      <point x="85" y="366" type="line"/>
      <point x="20" y="428" type="line"/>
      <point x="20" y="492" type="line"/>
      <point x="287" y="492" type="line"/>
      <point x="287" y="428" type="line"/>
      <point x="225" y="367" type="line"/>
      <point x="379" y="130" type="line"/>
      <point x="510" y="366" type="line"/>
      <point x="442" y="428" type="line"/>
      <point x="442" y="492" type="line"/>
      <point x="696" y="492" type="line"/>
      <point x="696" y="430" type="line"/>
      <point x="631" y="364" type="line"/>
      <point x="313" y="-186" type="line" smooth="yes"/>
      <point x="271" y="-258"/>
      <point x="208" y="-312"/>
      <point x="131" y="-312" type="curve" smooth="yes"/>
      <point x="39" y="-312"/>
      <point x="-20" y="-226"/>
      <point x="-20" y="-165" type="curve"/>
      <point x="-20" y="-126"/>
      <point x="-7" y="-103"/>
      <point x="-7" y="-103" type="curve"/>
    </contour>
  </outline>
</glyph>
<glyph name="z" format="1">
  <advance width="549"/>
  <unicode hex="007A"/>
  <outline>
    <contour>
      <point x="21" y="63" type="line"/>
      <point x="319" y="378" type="line"/>
      <point x="162" y="378" type="line"/>
      <point x="128" y="326" type="line"/>
      <point x="50" y="326" type="line"/>
      <point x="50" y="492" type="line"/>
      <point x="522" y="492" type="line"/>
      <point x="522" y="431" type="line"/>
      <point x="206" y="114" type="line"/>
      <point x="407" y="114" type="line" smooth="yes"/>
      <point x="455" y="114"/>
      <point x="471" y="148"/>
      <point x="472" y="178" type="curve"/>
      <point x="522" y="194" type="line"/>
      <point x="565" y="100"/>
      <point x="458" y="-14"/>
      <point x="359" y="-14" type="curve"/>
      <point x="259" y="-14"/>
      <point x="244" y="29"/>
      <point x="163" y="29" type="curve"/>
      <point x="122" y="29"/>
      <point x="76" y="0"/>
      <point x="76" y="0" type="curve"/>
    </contour>
  </outline>
</glyph>
<glyph name="bar" format="1">
  <advance width="201"/>
  <unicode hex="007C"/>
  <outline>
    <contour>
      <point x="70" y="0" type="line"/>
      <point x="131" y="0" type="line"/>
      <point x="131" y="492" type="line"/>
      <point x="70" y="492" type="line"/>
    </contour>
  </outline>
</glyph>
<glyph name="copyright" format="1">
  <advance width="594"/>
  <unicode hex="00A9"/>
  <outline>
    <contour>
      <point x="40" y="492" type="curve" smooth="yes"/>
      <point x="40" y="350"/>
      <point x="155" y="235"/>
      <point x="297" y="235" type="curve" smooth="yes"/>
      <point x="439" y="235"/>
      <point x="554" y="350"/>
      <point x="554" y="492" type="curve" smooth="yes"/>
      <point x="554" y="634"/>
      <point x="439" y="749"/>
      <point x="297" y="749" type="curve" smooth="yes"/>
      <point x="155" y="749"/>
      <point x="40" y="634"/>
    </contour>
    <contour>
      <point x="101" y="492" type="curve" smooth="yes"/>
      <point x="101" y="600"/>
      <point x="188" y="687"/>
      <point x="296" y="687" type="curve" smooth="yes"/>
      <point x="404" y="687"/>
      <point x="491" y="600"/>
      <point x="491" y="492" type="curve" smooth="yes"/>
      <point x="491" y="384"/>
      <point x="404" y="297"/>
      <point x="296" y="297" type="curve" smooth="yes"/>
      <point x="188" y="297"/>
      <point x="101" y="384"/>
    </contour>
    <contour>
      <point x="385" y="553" type="line"/>
      <point x="385" y="642" type="line"/>
      <point x="363" y="642" type="line"/>
      <point x="354" y="626" type="line"/>
      <point x="354" y="626"/>
      <point x="330" y="645"/>
      <point x="298" y="645" type="curve" smooth="yes"/>
      <point x="230" y="645"/>
      <point x="172" y="590"/>
      <point x="172" y="488" type="curve" smooth="yes"/>
      <point x="172" y="396"/>
      <point x="228" y="337"/>
      <point x="298" y="337" type="curve" smooth="yes"/>
      <point x="366" y="337"/>
      <point x="394" y="404"/>
      <point x="394" y="440" type="curve" smooth="yes"/>
      <point x="394" y="449"/>
      <point x="390" y="458"/>
      <point x="390" y="458" type="curve"/>
      <point x="373" y="453" type="line"/>
      <point x="374" y="422"/>
      <point x="348" y="388"/>
      <point x="298" y="388" type="curve" smooth="yes"/>
      <point x="250" y="388"/>
      <point x="219" y="430"/>
      <point x="219" y="488" type="curve" smooth="yes"/>
      <point x="219" y="553"/>
      <point x="254" y="589"/>
      <point x="295" y="589" type="curve" smooth="yes"/>
      <point x="349" y="589"/>
      <point x="363" y="553"/>
      <point x="363" y="553" type="curve"/>
    </contour>
  </outline>
</glyph>
<glyph name="registered" format="1">
  <advance width="594"/>
  <unicode hex="00AE"/>
  <outline>
    <contour>
      <point x="40" y="492" type="curve" smooth="yes"/>
      <point x="40" y="350"/>
      <point x="155" y="235"/>
      <point x="297" y="235" type="curve" smooth="yes"/>
      <point x="439" y="235"/>
      <point x="554" y="350"/>
      <point x="554" y="492" type="curve" smooth="yes"/>
      <point x="554" y="634"/>
      <point x="439" y="749"/>
      <point x="297" y="749" type="curve" smooth="yes"/>
      <point x="155" y="749"/>
      <point x="40" y="634"/>
    </contour>
    <contour>
      <point x="101" y="492" type="curve" smooth="yes"/>
      <point x="101" y="600"/>
      <point x="188" y="687"/>
      <point x="296" y="687" type="curve" smooth="yes"/>
      <point x="404" y="687"/>
      <point x="491" y="600"/>
      <point x="491" y="492" type="curve" smooth="yes"/>
      <point x="491" y="384"/>
      <point x="404" y="297"/>
      <point x="296" y="297" type="curve" smooth="yes"/>
      <point x="188" y="297"/>
      <point x="101" y="384"/>
    </contour>
    <contour>
      <point x="398" y="408" type="line"/>
      <point x="398" y="408"/>
      <point x="400" y="387"/>
      <point x="376" y="387" type="curve" smooth="yes"/>
      <point x="363" y="387"/>
      <point x="356" y="393"/>
      <point x="350" y="413" type="curve" smooth="yes"/>
      <point x="331" y="476" type="line"/>
      <point x="369" y="484"/>
      <point x="396" y="520"/>
      <point x="396" y="556" type="curve" smooth="yes"/>
      <point x="396" y="596"/>
      <point x="366" y="637"/>
      <point x="298" y="637" type="curve" smooth="yes"/>
      <point x="189" y="637" type="line"/>
      <point x="189" y="617" type="line"/>
      <point x="214" y="600" type="line"/>
      <point x="214" y="387" type="line"/>
      <point x="189" y="369" type="line"/>
      <point x="189" y="349" type="line"/>
      <point x="282" y="349" type="line"/>
      <point x="282" y="369" type="line"/>
      <point x="259" y="387" type="line"/>
      <point x="259" y="475" type="line"/>
      <point x="289" y="475" type="line"/>
      <point x="313" y="392" type="line" smooth="yes"/>
      <point x="323" y="359"/>
      <point x="342" y="342"/>
      <point x="370" y="342" type="curve" smooth="yes"/>
      <point x="397" y="342"/>
      <point x="417" y="365"/>
      <point x="417" y="395" type="curve" smooth="yes"/>
      <point x="417" y="407"/>
      <point x="413" y="414"/>
      <point x="413" y="414" type="curve"/>
    </contour>
    <contour>
      <point x="259" y="590" type="line"/>
      <point x="299" y="590" type="line" smooth="yes"/>
      <point x="345" y="590"/>
      <point x="351" y="575"/>
      <point x="351" y="556" type="curve" smooth="yes"/>
      <point x="351" y="536"/>
      <point x="345" y="523"/>
      <point x="299" y="523" type="curve" smooth="yes"/>
      <point x="259" y="523" type="line"/>
    </contour>
  </outline>
</glyph>
<glyph name="acute" format="1">
  <advance width="1000"/>
  <unicode hex="00B4"/>
  <outline>
    <contour>
      <point x="377" y="548" type="line"/>
      <point x="582" y="604"/>
      <point x="665" y="696"/>
      <point x="665" y="749" type="curve" smooth="yes"/>
      <point x="665" y="783"/>
      <point x="641" y="806"/>
      <point x="596" y="806" type="curve"/>
      <point x="533" y="806" type="line"/>
      <point x="533" y="806"/>
      <point x="518" y="685"/>
      <point x="325" y="618" type="curve"/>
    </contour>
  </outline>
</glyph>
<glyph name="periodcentered" format="1">
  <advance width="270"/>
  <unicode hex="00B7"/>
  <outline>
    <contour>
      <point x="146" y="168" type="line"/>
      <point x="124" y="168" type="line"/>
      <point x="40" y="252" type="line"/>
      <point x="40" y="274" type="line"/>
      <point x="124" y="357" type="line"/>
      <point x="146" y="357" type="line"/>
      <point x="230" y="274" type="line"/>
      <point x="230" y="252" type="line"/>
    </contour>
  </outline>
</glyph>
<glyph name="cedilla" format="1">
  <advance width="833"/>
  <unicode hex="00B8"/>
  <outline>
    <contour>
      <point x="253" y="-126" type="line"/>
      <point x="306" y="-126" type="line" smooth="yes"/>
      <point x="349" y="-126"/>
      <point x="377" y="-147"/>
      <point x="377" y="-176" type="curve" smooth="yes"/>
      <point x="377" y="-208"/>
      <point x="343" y="-226"/>
      <point x="301" y="-226" type="curve" smooth="yes"/>
      <point x="244" y="-226"/>
      <point x="214" y="-192"/>
      <point x="214" y="-140" type="curve"/>
      <point x="173" y="-164" type="line"/>
      <point x="173" y="-240"/>
      <point x="219" y="-320"/>
      <point x="305" y="-320" type="curve" smooth="yes"/>
      <point x="376" y="-320"/>
      <point x="449" y="-272"/>
      <point x="449" y="-177" type="curve" smooth="yes"/>
      <point x="449" y="-121"/>
      <point x="410" y="-77"/>
      <point x="366" y="-77" type="curve" smooth="yes"/>
      <point x="342" y="-77"/>
      <point x="324" y="-82"/>
      <point x="324" y="-82" type="curve"/>
      <point x="367" y="8" type="line"/>
      <point x="315" y="8" type="line"/>
    </contour>
  </outline>
</glyph>
<glyph name="dotlessi" format="1">
  <advance width="350"/>
  <unicode hex="0131"/>
  <outline>
    <contour>
      <point x="256" y="126" type="line"/>
      <point x="330" y="64" type="line"/>
      <point x="330" y="0" type="line"/>
      <point x="63" y="0" type="line"/>
      <point x="63" y="64" type="line"/>
      <point x="137" y="126" type="line"/>
      <point x="137" y="372" type="line"/>
      <point x="40" y="372" type="line"/>
      <point x="40" y="492" type="line"/>
      <point x="256" y="492" type="line"/>
    </contour>
  </outline>
</glyph>
<glyph name="circumflex" format="1">
  <advance width="420"/>
  <unicode hex="02C6"/>
  <outline>
    <contour>
      <point x="55" y="579" type="move" name="_top"/>
    </contour>
    <contour>
      <point x="250" y="773" type="line"/>
      <point x="170" y="773" type="line"/>
      <point x="40" y="589" type="line"/>
      <point x="86" y="589" type="line"/>
      <point x="210" y="661" type="line"/>
      <point x="334" y="589" type="line"/>
      <point x="380" y="589" type="line"/>
    </contour>
  </outline>
</glyph>
<glyph name="emdash" format="1">
  <advance width="865"/>
  <unicode hex="2014"/>
  <outline>
    <contour>
      <point x="187" y="218" type="curve"/>
      <point x="665" y="218" type="line"/>
      <point x="794" y="218"/>
      <point x="808" y="341"/>
      <point x="808" y="407" type="curve"/>
      <point x="758" y="391" type="line"/>
      <point x="758" y="376"/>
      <point x="754" y="338"/>
      <point x="653" y="338" type="curve"/>
      <point x="179" y="338" type="line"/>
      <point x="38" y="338"/>
      <point x="32" y="206"/>
      <point x="32" y="148" type="curve"/>
      <point x="82" y="165" type="line"/>
      <point x="82" y="180"/>
      <point x="87" y="218"/>
    </contour>
  </outline>
</glyph>
<glyph name="quoteleft" format="1">
  <advance width="288"/>
  <unicode hex="2018"/>
  <outline>
    <contour>
      <point x="210" y="715" type="line"/>
      <point x="156" y="786"/>
      <point x="204" y="845"/>
      <point x="248" y="874" type="curve"/>
      <point x="222" y="920" type="line"/>
      <point x="222" y="920"/>
      <point x="193" y="909"/>
      <point x="165" y="884" type="curve" smooth="yes"/>
      <point x="107" y="832"/>
      <point x="69" y="773"/>
      <point x="40" y="715" type="curve"/>
      <point x="40" y="693" type="line"/>
      <point x="114" y="620" type="line"/>
      <point x="136" y="620" type="line"/>
      <point x="210" y="693" type="line"/>
    </contour>
  </outline>
</glyph>
<glyph name="quoteright" format="1">
  <advance width="288"/>
  <unicode hex="2019"/>
  <outline>
    <contour>
      <point x="78" y="825" type="line"/>
      <point x="132" y="754"/>
      <point x="84" y="695"/>
      <point x="40" y="666" type="curve"/>
      <point x="66" y="620" type="line"/>
      <point x="66" y="620"/>
      <point x="95" y="631"/>
      <point x="123" y="656" type="curve" smooth="yes"/>
      <point x="181" y="708"/>
      <point x="219" y="767"/>
      <point x="248" y="825" type="curve"/>
      <point x="248" y="847" type="line"/>
      <point x="174" y="920" type="line"/>
      <point x="152" y="920" type="line"/>
      <point x="78" y="847" type="line"/>
    </contour>
  </outline>
</glyph>
<glyph name="quotedblleft" format="1">
  <advance width="488"/>
  <unicode hex="201C"/>
  <outline>
    <contour>
      <point x="410" y="715" type="line"/>
      <point x="356" y="786"/>
      <point x="404" y="845"/>
      <point x="448" y="874" type="curve"/>
      <point x="422" y="920" type="line"/>
      <point x="422" y="920"/>
      <point x="393" y="909"/>
      <point x="365" y="884" type="curve" smooth="yes"/>
      <point x="307" y="832"/>
      <point x="269" y="773"/>
      <point x="240" y="715" type="curve"/>
      <point x="240" y="693" type="line"/>
      <point x="314" y="620" type="line"/>
      <point x="336" y="620" type="line"/>
      <point x="410" y="693" type="line"/>
    </contour>
    <contour>
      <point x="210" y="715" type="line"/>
      <point x="156" y="786"/>
      <point x="204" y="845"/>
      <point x="248" y="874" type="curve"/>
      <point x="222" y="920" type="line"/>
      <point x="222" y="920"/>
      <point x="193" y="909"/>
      <point x="165" y="884" type="curve" smooth="yes"/>
      <point x="107" y="832"/>
      <point x="69" y="773"/>
      <point x="40" y="715" type="curve"/>
      <point x="40" y="693" type="line"/>
      <point x="114" y="620" type="line"/>
      <point x="136" y="620" type="line"/>
      <point x="210" y="693" type="line"/>
    </contour>
  </outline>
</glyph>
<glyph name="quotedblright" format="1">
  <advance width="488"/>
  <unicode hex="201D"/>
  <outline>
    <contour>
      <point x="78" y="825" type="line"/>
      <point x="132" y="754"/>
      <point x="84" y="695"/>
      <point x="40" y="666" type="curve"/>
      <point x="66" y="620" type="line"/>
      <point x="66" y="620"/>
      <point x="95" y="631"/>
      <point x="123" y="656" type="curve" smooth="yes"/>
      <point x="181" y="708"/>
      <point x="219" y="767"/>
      <point x="248" y="825" type="curve"/>
      <point x="248" y="847" type="line"/>
      <point x="174" y="920" type="line"/>
      <point x="152" y="920" type="line"/>
      <point x="78" y="847" type="line"/>
    </contour>
    <contour>
      <point x="278" y="825" type="line"/>
      <point x="332" y="754"/>
      <point x="284" y="695"/>
      <point x="240" y="666" type="curve"/>
      <point x="266" y="620" type="line"/>
      <point x="266" y="620"/>
      <point x="295" y="631"/>
      <point x="323" y="656" type="curve" smooth="yes"/>
      <point x="381" y="708"/>
      <point x="419" y="767"/>
      <point x="448" y="825" type="curve"/>
      <point x="448" y="847" type="line"/>
      <point x="374" y="920" type="line"/>
      <point x="352" y="920" type="line"/>
      <point x="278" y="847" type="line"/>
    </contour>
  </outline>
</glyph>
<glyph name="Euro" format="1">
  <advance width="836"/>
  <unicode hex="20AC"/>
  <outline>
    <contour>
      <point x="522" y="336" type="line"/>
      <point x="522" y="397" type="line"/>
      <point x="30" y="397" type="line"/>
      <point x="30" y="336" type="line"/>
    </contour>
    <contour>
      <point x="522" y="498" type="line"/>
      <point x="522" y="559" type="line"/>
      <point x="30" y="559" type="line"/>
      <point x="30" y="498" type="line"/>
    </contour>
    <component base="C" xOffset="110"/>
  </outline>
</glyph>
<glyph name="_0014" format="1">
  <advance width="1000"/>
  <outline>
    <contour>
      <point x="873" y="547" type="line"/>
      <point x="816" y="399"/>
      <point x="654" y="264"/>
      <point x="609" y="264" type="curve"/>
      <point x="609" y="839" type="line"/>
      <point x="502" y="857" type="line"/>
      <point x="502" y="223" type="line"/>
      <point x="553" y="118" type="line"/>
      <point x="717" y="118"/>
      <point x="887" y="326"/>
      <point x="942" y="469" type="curve"/>
    </contour>
    <contour>
      <point x="417" y="799" type="line"/>
      <point x="447" y="831" type="line"/>
      <point x="447" y="831"/>
      <point x="447" y="847"/>
      <point x="417" y="849" type="curve" smooth="yes"/>
      <point x="316" y="857" type="line"/>
      <point x="316" y="734" type="line" smooth="yes"/>
      <point x="316" y="435"/>
      <point x="242" y="223"/>
      <point x="38" y="223" type="curve"/>
      <point x="78" y="105" type="line"/>
      <point x="249" y="105"/>
      <point x="417" y="242"/>
      <point x="417" y="735" type="curve" smooth="yes"/>
    </contour>
    <contour>
      <point x="513" y="841" type="line"/>
      <point x="513" y="841"/>
      <point x="520" y="797"/>
      <point x="520" y="797" type="curve"/>
      <point x="609" y="802" type="line"/>
      <point x="639" y="829" type="line"/>
      <point x="639" y="829"/>
      <point x="639" y="847"/>
      <point x="609" y="849" type="curve" smooth="yes"/>
      <point x="502" y="857" type="line"/>
    </contour>
  </outline>
</glyph>
<glyph name="_0015" format="1">
  <advance width="1000"/>
  <outline>
    <contour>
      <point x="741" y="-13" type="curve"/>
      <point x="851" y="-13"/>
      <point x="947" y="162"/>
      <point x="947" y="746" type="curve"/>
      <point x="143" y="746" type="line"/>
      <point x="143" y="626" type="line"/>
      <point x="834" y="626" type="line"/>
      <point x="834" y="273"/>
      <point x="780" y="122"/>
      <point x="729" y="122" type="curve"/>
      <point x="688" y="122"/>
      <point x="614" y="149"/>
      <point x="614" y="149" type="curve"/>
      <point x="552" y="25" type="line"/>
      <point x="552" y="25"/>
      <point x="644" y="-13"/>
    </contour>
    <contour>
      <point x="521" y="908" type="line"/>
      <point x="408" y="920" type="line"/>
      <point x="408" y="826" type="line" smooth="yes"/>
      <point x="408" y="397"/>
      <point x="256" y="105"/>
      <point x="52" y="105" type="curve"/>
      <point x="102" y="-13" type="line"/>
      <point x="270" y="-13"/>
      <point x="521" y="224"/>
      <point x="521" y="827" type="curve" smooth="yes"/>
    </contour>
    <contour>
      <point x="419" y="904" type="line"/>
      <point x="419" y="904"/>
      <point x="426" y="860"/>
      <point x="426" y="860" type="curve"/>
      <point x="521" y="865" type="line"/>
      <point x="551" y="892" type="line"/>
      <point x="551" y="892"/>
      <point x="551" y="910"/>
      <point x="521" y="912" type="curve" smooth="yes"/>
      <point x="408" y="920" type="line"/>
    </contour>
  </outline>
</glyph>
<glyph name="_0016" format="1">
  <advance width="1000"/>
  <outline>
    <contour>
      <point x="906" y="847" type="line"/>
      <point x="793" y="856" type="line"/>
      <point x="793" y="832" type="line" smooth="yes"/>
      <point x="793" y="509"/>
      <point x="479" y="205"/>
      <point x="217" y="155" type="curve"/>
      <point x="277" y="27" type="line"/>
      <point x="561" y="97"/>
      <point x="906" y="437"/>
      <point x="906" y="803" type="curve" smooth="yes"/>
    </contour>
    <contour>
      <point x="483" y="709" type="line"/>
      <point x="451" y="763"/>
      <point x="413" y="815"/>
      <point x="363" y="864" type="curve"/>
      <point x="288" y="789" type="line"/>
      <point x="341" y="736"/>
      <point x="379" y="682"/>
      <point x="407" y="631" type="curve"/>
    </contour>
    <contour>
      <point x="258" y="632" type="line"/>
      <point x="226" y="686"/>
      <point x="188" y="738"/>
      <point x="138" y="787" type="curve"/>
      <point x="63" y="712" type="line"/>
      <point x="116" y="659"/>
      <point x="154" y="605"/>
      <point x="182" y="554" type="curve"/>
    </contour>
    <contour>
      <point x="804" y="840" type="line"/>
      <point x="804" y="840"/>
      <point x="811" y="796"/>
      <point x="811" y="796" type="curve"/>
      <point x="906" y="801" type="line"/>
      <point x="936" y="828" type="line"/>
      <point x="936" y="828"/>
      <point x="936" y="846"/>
      <point x="906" y="848" type="curve" smooth="yes"/>
      <point x="793" y="856" type="line"/>
    </contour>
  </outline>
</glyph>
<glyph name="_0017" format="1">
  <advance width="1000"/>
  <outline>
    <contour>
      <point x="730" y="878" type="line"/>
      <point x="730" y="878"/>
      <point x="683" y="864"/>
      <point x="654" y="755" type="curve" smooth="yes"/>
      <point x="551" y="368"/>
      <point x="257" y="165"/>
      <point x="53" y="165" type="curve"/>
      <point x="113" y="38" type="line"/>
      <point x="342" y="38"/>
      <point x="617" y="253"/>
      <point x="751" y="703" type="curve" smooth="yes"/>
      <point x="770" y="768"/>
      <point x="810" y="793"/>
      <point x="810" y="793" type="curve"/>
    </contour>
    <contour>
      <point x="706" y="856" type="line"/>
      <point x="150" y="856" type="line"/>
      <point x="150" y="736" type="line"/>
      <point x="670" y="736" type="line"/>
    </contour>
    <contour>
      <point x="525" y="366" type="line"/>
      <point x="700" y="242"/>
      <point x="852" y="30"/>
      <point x="852" y="30" type="curve"/>
      <point x="948" y="125" type="line"/>
      <point x="948" y="125"/>
      <point x="787" y="314"/>
      <point x="590" y="457" type="curve"/>
    </contour>
  </outline>
</glyph>
<glyph name="_0018" format="1">
  <advance width="1000"/>
  <outline>
    <contour>
      <point x="911" y="746" type="line"/>
      <point x="89" y="746" type="line"/>
      <point x="89" y="626" type="line"/>
      <point x="910" y="626" type="line"/>
    </contour>
    <contour>
      <point x="597" y="908" type="line"/>
      <point x="484" y="920" type="line"/>
      <point x="484" y="826" type="line" smooth="yes"/>
      <point x="484" y="397"/>
      <point x="332" y="105"/>
      <point x="128" y="105" type="curve"/>
      <point x="178" y="-13" type="line"/>
      <point x="346" y="-13"/>
      <point x="597" y="224"/>
      <point x="597" y="827" type="curve" smooth="yes"/>
    </contour>
    <contour>
      <point x="495" y="904" type="line"/>
      <point x="495" y="904"/>
      <point x="502" y="860"/>
      <point x="502" y="860" type="curve"/>
      <point x="597" y="865" type="line"/>
      <point x="627" y="892" type="line"/>
      <point x="627" y="892"/>
      <point x="627" y="910"/>
      <point x="597" y="912" type="curve" smooth="yes"/>
      <point x="484" y="920" type="line"/>
    </contour>
  </outline>
</glyph>
<glyph name="_0019" format="1">
  <advance width="1000"/>
  <outline>
    <contour>
      <point x="788" y="812" type="line"/>
      <point x="213" y="812" type="line"/>
      <point x="213" y="692" type="line"/>
      <point x="788" y="692" type="line"/>
    </contour>
    <contour>
      <point x="948" y="223" type="line"/>
      <point x="53" y="223" type="line"/>
      <point x="53" y="103" type="line"/>
      <point x="948" y="103" type="line"/>
    </contour>
  </outline>
</glyph>
<glyph name="_0020" format="1">
  <advance width="1000"/>
  <outline>
    <contour>
      <point x="819" y="756" type="line"/>
      <point x="667" y="354"/>
      <point x="318" y="185"/>
      <point x="103" y="175" type="curve"/>
      <point x="164" y="46" type="line"/>
      <point x="440" y="46"/>
      <point x="783" y="332"/>
      <point x="900" y="663" type="curve"/>
    </contour>
    <contour>
      <point x="347" y="799" type="line"/>
      <point x="347" y="799"/>
      <point x="241" y="870"/>
      <point x="149" y="891" type="curve"/>
      <point x="110" y="795" type="line"/>
      <point x="212" y="758"/>
      <point x="297" y="691"/>
      <point x="297" y="691" type="curve"/>
    </contour>
    <contour>
      <point x="109" y="163" type="line"/>
      <point x="161" y="47" type="line" smooth="yes"/>
      <point x="172" y="18"/>
      <point x="189" y="24"/>
      <point x="189" y="24" type="curve"/>
      <point x="205" y="60" type="line"/>
      <point x="171" y="164" type="line"/>
      <point x="171" y="164"/>
      <point x="127" y="158"/>
      <point x="127" y="158" type="curve"/>
    </contour>
  </outline>
</glyph>
<glyph name="_0021" format="1">
  <advance width="1000"/>
  <outline>
    <contour>
      <point x="805" y="856" type="line"/>
      <point x="115" y="856" type="line"/>
      <point x="115" y="492" type="line"/>
      <point x="234" y="492" type="line"/>
      <point x="234" y="736" type="line"/>
      <point x="766" y="737" type="line"/>
      <point x="766" y="468"/>
      <point x="481" y="225"/>
      <point x="312" y="165" type="curve"/>
      <point x="372" y="37" type="line"/>
      <point x="586" y="117"/>
      <point x="884" y="414"/>
      <point x="884" y="771" type="curve"/>
    </contour>
  </outline>
</glyph>
<glyph name="_0022" format="1">
  <advance width="1000"/>
  <outline>
    <contour>
      <point x="763" y="927" type="line"/>
      <point x="228" y="927" type="line"/>
      <point x="228" y="807" type="line"/>
      <point x="763" y="807" type="line"/>
    </contour>
    <contour>
      <point x="800" y="695" type="line"/>
      <point x="800" y="695"/>
      <point x="748" y="682"/>
      <point x="724" y="572" type="curve" smooth="yes"/>
      <point x="679" y="366"/>
      <point x="406" y="184"/>
      <point x="312" y="164" type="curve"/>
      <point x="372" y="36" type="line"/>
      <point x="491" y="56"/>
      <point x="737" y="259"/>
      <point x="821" y="520" type="curve" smooth="yes"/>
      <point x="841" y="583"/>
      <point x="880" y="610"/>
      <point x="880" y="610" type="curve"/>
    </contour>
    <contour>
      <point x="776" y="673" type="line"/>
      <point x="120" y="673" type="line"/>
      <point x="120" y="553" type="line"/>
      <point x="740" y="553" type="line"/>
    </contour>
  </outline>
</glyph>
<glyph name="_0023" format="1">
  <advance width="1000"/>
  <outline>
    <contour>
      <point x="154" y="508" type="line"/>
      <point x="872" y="702" type="line"/>
      <point x="799" y="813" type="line"/>
      <point x="799" y="813"/>
      <point x="792" y="791"/>
      <point x="765" y="784" type="curve" smooth="yes"/>
      <point x="118" y="625" type="line"/>
    </contour>
    <contour>
      <point x="645" y="95" type="line"/>
      <point x="431" y="925" type="line"/>
      <point x="321" y="899" type="line"/>
      <point x="534" y="69" type="line"/>
    </contour>
    <contour>
      <point x="337" y="887" type="line"/>
      <point x="337" y="887"/>
      <point x="356" y="847"/>
      <point x="356" y="847" type="curve"/>
      <point x="441" y="880" type="line"/>
      <point x="466" y="915" type="line"/>
      <point x="466" y="915"/>
      <point x="461" y="932"/>
      <point x="432" y="925" type="curve" smooth="yes"/>
      <point x="321" y="899" type="line"/>
    </contour>
    <contour>
      <point x="738" y="356" type="line"/>
      <point x="738" y="356"/>
      <point x="881" y="728"/>
      <point x="881" y="728" type="curve"/>
      <point x="881" y="728"/>
      <point x="799" y="813"/>
      <point x="799" y="813" type="curve"/>
      <point x="660" y="442" type="line"/>
    </contour>
  </outline>
</glyph>
<glyph name="_0024" format="1">
  <advance width="1000"/>
  <outline>
    <contour>
      <point x="115" y="624" type="line"/>
      <point x="690" y="624" type="line"/>
      <point x="690" y="624"/>
      <point x="565" y="521"/>
      <point x="405" y="288" type="curve"/>
      <point x="500" y="195" type="line"/>
      <point x="696" y="499"/>
      <point x="899" y="651"/>
      <point x="965" y="690" type="curve"/>
      <point x="884" y="774" type="line"/>
      <point x="884" y="774"/>
      <point x="861" y="762"/>
      <point x="840" y="746" type="curve"/>
      <point x="99" y="746" type="line"/>
    </contour>
    <contour>
      <point x="159" y="377" type="line"/>
      <point x="297" y="313"/>
      <point x="458" y="188"/>
      <point x="548" y="27" type="curve"/>
      <point x="641" y="87" type="line"/>
      <point x="541" y="292"/>
      <point x="354" y="417"/>
      <point x="202" y="497" type="curve"/>
    </contour>
  </outline>
</glyph>
<glyph name="_0025" format="1">
  <advance width="1000"/>
  <outline>
    <contour>
      <point x="613" y="747" type="line"/>
      <point x="774" y="586"/>
      <point x="802" y="201"/>
      <point x="802" y="201" type="curve"/>
      <point x="930" y="250" type="line"/>
      <point x="930" y="250"/>
      <point x="880" y="631"/>
      <point x="715" y="796" type="curve"/>
    </contour>
    <contour>
      <point x="490" y="765" type="line"/>
      <point x="377" y="774" type="line"/>
      <point x="377" y="750" type="line"/>
      <point x="347" y="527"/>
      <point x="71" y="303"/>
      <point x="71" y="303" type="curve"/>
      <point x="131" y="175" type="line"/>
      <point x="131" y="175"/>
      <point x="430" y="422"/>
      <point x="490" y="721" type="curve"/>
    </contour>
    <contour>
      <point x="388" y="758" type="line"/>
      <point x="388" y="758"/>
      <point x="395" y="714"/>
      <point x="395" y="714" type="curve"/>
      <point x="490" y="719" type="line"/>
      <point x="520" y="746" type="line"/>
      <point x="520" y="746"/>
      <point x="520" y="764"/>
      <point x="490" y="766" type="curve" smooth="yes"/>
      <point x="377" y="774" type="line"/>
    </contour>
  </outline>
</glyph>
<glyph name="_0026" format="1">
  <advance width="1000"/>
  <outline>
    <contour>
      <point x="930" y="742" type="line"/>
      <point x="817" y="742" type="line"/>
      <point x="817" y="628" type="line" smooth="yes"/>
      <point x="817" y="353"/>
      <point x="574" y="103"/>
      <point x="331" y="103" type="curve"/>
      <point x="391" y="-15" type="line"/>
      <point x="619" y="-15"/>
      <point x="930" y="255"/>
      <point x="930" y="669" type="curve" smooth="yes"/>
    </contour>
    <contour>
      <point x="929" y="742" type="line"/>
      <point x="428" y="742" type="line"/>
      <point x="428" y="622" type="line"/>
      <point x="909" y="622" type="line"/>
    </contour>
    <contour>
      <point x="442" y="919" type="line"/>
      <point x="442" y="608"/>
      <point x="220" y="395"/>
      <point x="69" y="395" type="curve"/>
      <point x="129" y="272" type="line"/>
      <point x="285" y="272"/>
      <point x="559" y="573"/>
      <point x="559" y="919" type="curve"/>
    </contour>
    <contour>
      <point x="472" y="409" type="line"/>
      <point x="590" y="365"/>
      <point x="705" y="260"/>
      <point x="795" y="129" type="curve"/>
      <point x="862" y="209" type="line"/>
      <point x="762" y="374"/>
      <point x="647" y="479"/>
      <point x="515" y="529" type="curve"/>
    </contour>
  </outline>
</glyph>
<glyph name="_0027" format="1">
  <advance width="1000"/>
  <outline>
    <contour>
      <point x="921" y="746" type="line"/>
      <point x="78" y="746" type="line"/>
      <point x="78" y="626" type="line"/>
      <point x="921" y="626" type="line"/>
    </contour>
    <contour>
      <point x="734" y="920" type="line"/>
      <point x="621" y="920" type="line"/>
      <point x="621" y="616" type="line" smooth="yes"/>
      <point x="621" y="317"/>
      <point x="559" y="105"/>
      <point x="355" y="105" type="curve"/>
      <point x="405" y="-13" type="line"/>
      <point x="573" y="-13"/>
      <point x="734" y="174"/>
      <point x="734" y="617" type="curve" smooth="yes"/>
    </contour>
    <contour>
      <point x="369" y="920" type="line"/>
      <point x="250" y="920" type="line"/>
      <point x="250" y="452" type="line"/>
      <point x="369" y="452" type="line"/>
    </contour>
  </outline>
</glyph>
<glyph name="_0028" format="1">
  <advance width="1000"/>
  <outline>
    <contour>
      <point x="102" y="690" type="line"/>
      <point x="819" y="690" type="line"/>
      <point x="779" y="556"/>
      <point x="630" y="454"/>
      <point x="526" y="454" type="curve"/>
      <point x="631" y="361" type="line"/>
      <point x="814" y="405"/>
      <point x="939" y="623"/>
      <point x="938" y="727" type="curve" smooth="yes"/>
      <point x="937" y="812" type="line"/>
      <point x="102" y="812" type="line"/>
    </contour>
    <contour>
      <point x="420" y="589" type="line"/>
      <point x="420" y="298"/>
      <point x="212" y="111"/>
      <point x="61" y="111" type="curve"/>
      <point x="121" y="-12" type="line"/>
      <point x="267" y="-12"/>
      <point x="537" y="223"/>
      <point x="537" y="589" type="curve"/>
    </contour>
  </outline>
</glyph>
<glyph name="dieresis#2" format="1">
  <advance width="522"/>
  <outline>
    <contour>
      <point x="146" y="589" type="line"/>
      <point x="124" y="589" type="line"/>
      <point x="40" y="673" type="line"/>
      <point x="40" y="695" type="line"/>
      <point x="124" y="778" type="line"/>
      <point x="146" y="778" type="line"/>
      <point x="230" y="695" type="line"/>
      <point x="230" y="673" type="line"/>
    </contour>
    <contour>
      <point x="398" y="589" type="line"/>
      <point x="376" y="589" type="line"/>
      <point x="292" y="673" type="line"/>
      <point x="292" y="695" type="line"/>
      <point x="376" y="778" type="line"/>
      <point x="398" y="778" type="line"/>
      <point x="482" y="695" type="line"/>
      <point x="482" y="673" type="line"/>
    </contour>
  </outline>
</glyph>
